<?xml version="1.0" standalone="no"?>
<!DOCTYPE svg PUBLIC "-//W3C//DTD SVG 1.1//EN" "http://www.w3.org/Graphics/SVG/1.1/DTD/svg11.dtd" >
<svg xmlns="http://www.w3.org/2000/svg" xmlns:xlink="http://www.w3.org/1999/xlink" version="1.1">
<metadata>
Created by FontForge 20170731 at Tue Mar 19 20:09:17 2019
 By Aleksey,,,
copyright missing
</metadata>
<defs>
<font id="Messapia-Bold" horiz-adv-x="1010" >
  <font-face 
    font-family="Messapia Bold"
    font-weight="700"
    font-stretch="expanded"
    units-per-em="1000"
    panose-1="0 0 8 5 0 0 0 0 0 0"
    ascent="800"
    descent="-200"
    x-height="500"
    cap-height="734"
    bbox="-726 -252 1819 1062"
    underline-thickness="50"
    underline-position="-200"
    unicode-range="U+0020-2212"
  />
<missing-glyph horiz-adv-x="475" 
d="M390 750v-950h-302v950h302zM316 686h-156v-31h61v-35h-62v-31h157v31h-62v35h62v31zM254 564h-95v-99h157v32h-62v67zM221 532v-35h-31v35h31zM316 439h-157v-31h62v-35h-62v-31h95v66h62v31zM316 382h-31v-62h-126v-33h157v95zM316 266h-95v-53h33v22h31v-45h-95v76
h-31v-107h157v107zM316 102h-157v-107h157v107zM285 71v-45h-95v45h95zM316 -27h-157v-31h66l-66 -45v-31h157v31h-97l67 45h30v31z" />
    <glyph glyph-name=".notdef" horiz-adv-x="475" 
d="M390 750v-950h-302v950h302zM316 686h-156v-31h61v-35h-62v-31h157v31h-62v35h62v31zM254 564h-95v-99h157v32h-62v67zM221 532v-35h-31v35h31zM316 439h-157v-31h62v-35h-62v-31h95v66h62v31zM316 382h-31v-62h-126v-33h157v95zM316 266h-95v-53h33v22h31v-45h-95v76
h-31v-107h157v107zM316 102h-157v-107h157v107zM285 71v-45h-95v45h95zM316 -27h-157v-31h66l-66 -45v-31h157v31h-97l67 45h30v31z" />
    <glyph glyph-name=".null" horiz-adv-x="0" 
 />
    <glyph glyph-name="nonmarkingreturn" horiz-adv-x="333" 
 />
    <glyph glyph-name="space" unicode=" " horiz-adv-x="338" 
 />
    <glyph glyph-name="exclam" unicode="!" horiz-adv-x="278" 
d="M72 734h138v-284l-10 -216h-118l-10 216v284zM141 -10q41 0 65 21t24 61t-24 61t-65 21t-65 -21t-24 -61t24 -61t65 -21z" />
    <glyph glyph-name="quotedbl" unicode="&#x22;" horiz-adv-x="497" 
d="M50 597v125h161v-125l-7 -141h-147zM286 597v125h161v-125l-7 -141h-147z" />
    <glyph glyph-name="numbersign" unicode="#" horiz-adv-x="1116" 
d="M610 162h-208l-40 -162h-156l40 162h-216v128h248l36 143h-226v128h258l40 161h156l-40 -161h208l40 161h156l-40 -161h220v-128h-252l-36 -143h230v-128h-262l-40 -162h-156zM678 433h-208l-36 -143h208z" />
    <glyph glyph-name="dollar" unicode="$" horiz-adv-x="1040" 
d="M990 213q0 -63 -32.5 -109.5t-91 -73.5t-128.5 -41t-156 -18v-171h-125v172q-115 7 -223.5 37.5t-183.5 81.5l46 151q138 -93 361 -118v156q-79 4 -139 15.5t-113 36.5t-81.5 70t-28.5 108q0 120 97.5 177.5t264.5 62.5v132h125v-134q232 -14 367 -98l-46 -143
q-119 78 -321 96v-171q51 -1 87.5 -2.5t82 -6.5t77 -14t64.5 -25.5t52.5 -39t32 -56t12.5 -75.5zM257 519q0 -72 200 -83v172q-95 -4 -147.5 -28.5t-52.5 -60.5zM582 117q60 0 109 7.5t87.5 30t38.5 58.5q0 22 -17.5 36t-55 20t-71.5 7.5t-91 1.5v-161z" />
    <glyph glyph-name="percent" unicode="%" horiz-adv-x="1657" 
d="M378 248q-151 0 -239.5 65.5t-88.5 180.5q0 116 88.5 181t239.5 65t239.5 -65t88.5 -181q0 -115 -88.5 -180.5t-239.5 -65.5zM466 4l564 718h149l3 -4l-564 -718h-149zM378 356q92 0 145 35t53 103t-53 103t-145 35t-145.5 -35.5t-53.5 -102.5t53.5 -102.5t145.5 -35.5z
M1279 -12q-151 0 -239.5 65.5t-88.5 180.5q0 116 88.5 181t239.5 65t239.5 -65t88.5 -181q0 -115 -88.5 -180.5t-239.5 -65.5zM1279 96q92 0 145 35t53 103t-53 103t-145 35t-145.5 -35.5t-53.5 -102.5t53.5 -102.5t145.5 -35.5z" />
    <glyph glyph-name="ampersand" unicode="&#x26;" horiz-adv-x="1426" 
d="M1071 0q-28 13 -79 37.5t-57 27.5q-189 -77 -416 -77q-232 0 -355.5 69t-123.5 194q0 99 78.5 156.5t230.5 65.5q-16 36 -16 77q0 100 95.5 146t296.5 46q205 0 297.5 -46.5t92.5 -144.5q0 -93 -75.5 -145t-208.5 -52h-148q74 -50 238 -131q203 93 384 271l4 -197
q-114 -95 -218 -154l295 -143h-315zM518 530q0 -31 28 -56h210q102 0 144 16t42 53t-46.5 53t-164.5 16q-105 0 -159 -17t-54 -65zM512 132q120 0 233 29q-202 106 -304 193h-33q-86 0 -133.5 -24.5t-47.5 -70.5q0 -59 76.5 -93t208.5 -34z" />
    <glyph glyph-name="quotesingle" unicode="'" horiz-adv-x="261" 
d="M50 597v125h161v-125l-7 -141h-147z" />
    <glyph glyph-name="parenleft" unicode="(" horiz-adv-x="493" 
d="M283 -210q-104 93 -168.5 238t-64.5 289q0 142 64.5 287t168.5 238h185l2 -5q-111 -84 -184.5 -227t-73.5 -293q0 -151 74.5 -294.5t186.5 -227.5l-2 -5h-188z" />
    <glyph glyph-name="parenright" unicode=")" horiz-adv-x="493" 
d="M210 -210h-188l-2 5q112 84 186.5 227.5t74.5 294.5q0 150 -73.5 293t-184.5 227l2 5h185q104 -93 168.5 -238t64.5 -287q0 -144 -64.5 -289t-168.5 -238z" />
    <glyph glyph-name="asterisk" unicode="*" horiz-adv-x="881" 
d="M708 319l-194 153v-147h-146v146l-193 -152l-90 89l153 94h-188v104h318v128h146v-128h317v-104h-186l153 -94z" />
    <glyph glyph-name="plus" unicode="+" horiz-adv-x="920" 
d="M534 311v-211h-148v211h-336v128h336v211h148v-211h336v-128h-336z" />
    <glyph glyph-name="comma" unicode="," horiz-adv-x="300" 
d="M50 -177l57 177h-56v177h199v-145l-133 -209h-67z" />
    <glyph glyph-name="hyphen" unicode="-" horiz-adv-x="600" 
d="M50 360h500v-134l-500 -1v135z" />
    <glyph glyph-name="period" unicode="." horiz-adv-x="278" 
d="M139 -10q41 0 65 21t24 61t-24 61t-65 21t-65 -21t-24 -61t24 -61t65 -21z" />
    <glyph glyph-name="slash" unicode="/" horiz-adv-x="870" 
d="M50 -118l618 965h149l3 -4l-618 -965h-149z" />
    <glyph glyph-name="zero" unicode="0" horiz-adv-x="980" 
d="M490 -32q-204 0 -327 109.5t-123 287.5t123 287.5t327 109.5t327 -109.5t123 -287.5t-123 -287.5t-327 -109.5zM490 109q135 0 217.5 71.5t82.5 184.5q0 114 -81 185t-219 71q-139 0 -219.5 -69.5t-80.5 -186.5q0 -116 82 -186t218 -70z" />
    <glyph glyph-name="one" unicode="1" horiz-adv-x="629" 
d="M379 556q-50 -43 -131 -75.5t-173 -46.5v151q92 11 181 50.5t156 98.5h142v-734h-175v556z" />
    <glyph glyph-name="two" unicode="2" horiz-adv-x="978" 
d="M50 31q0 64 19 114t64.5 96t126 83t198.5 67q130 33 194 55t80.5 35t16.5 32q0 36 -63 62t-167 26q-269 0 -430 -109l-6 146q175 105 440 105q179 0 287.5 -62.5t108.5 -166.5q0 -61 -28 -100.5t-106 -74.5t-223 -69q-286 -67 -311 -130h677v-140h-878v31z" />
    <glyph glyph-name="three" unicode="3" horiz-adv-x="983" 
d="M475 -12q-252 0 -425 95l5 148q154 -102 434 -102q133 0 208.5 29.5t75.5 77.5q0 34 -48 54t-138 20h-289v133h292q154 0 154 65q0 38 -73 65.5t-185 27.5q-260 0 -412 -103l-4 147q178 97 410 97q193 0 308.5 -59t115.5 -149q0 -50 -17 -86.5t-69 -63.5
q47 -16 73.5 -42.5t34 -54t7.5 -66.5q0 -103 -125 -168t-333 -65z" />
    <glyph glyph-name="four" unicode="4" horiz-adv-x="1008" 
d="M836 172v-172h-180v172h-626v116l647 446h159v-437h142v-125h-142zM656 552l-370 -255h370v255z" />
    <glyph glyph-name="five" unicode="5" horiz-adv-x="1054" 
d="M539 -12q-268 0 -461 106l8 156q175 -115 466 -115q136 0 219 33t83 88q0 53 -76.5 85t-202.5 32q-154 0 -343 -88l-157 102l81 347h798v-135h-671l-28 -164q102 42 174 56.5t171 14.5q188 0 301 -67t113 -184q0 -125 -128 -196t-347 -71z" />
    <glyph glyph-name="six" unicode="6" horiz-adv-x="1009" 
d="M496 -12q-225 0 -340.5 89.5t-115.5 263.5q0 198 122.5 299.5t361.5 101.5q204 0 356 -60l-9 -138q-147 60 -354 60q-283 0 -327 -166q130 63 335 63q219 0 331.5 -63.5t112.5 -186.5q0 -130 -120 -196.5t-353 -66.5zM509 128q145 0 222.5 33t77.5 93q0 58 -77.5 90.5
t-222.5 32.5q-149 0 -229.5 -32.5t-80.5 -90.5q0 -60 80 -93t230 -33z" />
    <glyph glyph-name="seven" unicode="7" horiz-adv-x="919" 
d="M293 0q34 193 116 326.5t241 264.5h-620v140l859 3v-131q-204 -150 -298 -284t-123 -319h-175z" />
    <glyph glyph-name="eight" unicode="8" horiz-adv-x="1024" 
d="M512 -12q-233 0 -352.5 57.5t-119.5 168.5q0 64 38 104.5t131 68.5q-75 24 -105.5 60.5t-30.5 92.5q0 202 439 202t439 -202q0 -56 -30.5 -92.5t-105.5 -60.5q93 -28 131 -68.5t38 -104.5q0 -111 -119.5 -168.5t-352.5 -57.5zM512 443q137 0 205.5 23.5t68.5 65.5
q0 41 -70 68t-204 27t-204 -27t-70 -68q0 -42 68.5 -65.5t205.5 -23.5zM512 117q305 0 305 104q0 102 -305 102t-305 -102q0 -104 305 -104z" />
    <glyph glyph-name="nine" unicode="9" horiz-adv-x="1009" 
d="M513 742q225 0 340.5 -89.5t115.5 -263.5q0 -198 -122.5 -299.5t-361.5 -101.5q-204 0 -356 60l9 138q147 -60 354 -60q283 0 327 166q-130 -63 -335 -63q-219 0 -331.5 63.5t-112.5 186.5q0 130 120 196.5t353 66.5zM500 602q-145 0 -222.5 -33t-77.5 -93
q0 -58 77.5 -90.5t222.5 -32.5q149 0 229.5 32.5t80.5 90.5q0 60 -80 93t-230 33z" />
    <glyph glyph-name="colon" unicode=":" horiz-adv-x="280" 
d="M140 335q88 0 90 82q1 40 -23.5 61.5t-66.5 21.5q-41 0 -65.5 -21.5t-23.5 -61.5t24.5 -61t64.5 -21zM139 0q41 0 65.5 21.5t24.5 61.5t-24.5 61.5t-65.5 21.5t-65 -21.5t-24 -61.5t24 -61.5t65 -21.5z" />
    <glyph glyph-name="semicolon" unicode=";" horiz-adv-x="300" 
d="M150 418q41 0 65 21t24 61t-24 61t-65 21t-65 -21t-24 -61t24 -61t65 -21zM50 -177l57 177h-56v177h199v-145l-133 -209h-67z" />
    <glyph glyph-name="less" unicode="&#x3c;" horiz-adv-x="847" 
d="M50 297v128l747 236v-146l-519 -154l519 -153v-147z" />
    <glyph glyph-name="equal" unicode="=" horiz-adv-x="920" 
d="M50 580h820v-128h-820v128zM50 295h820v-128h-820v128z" />
    <glyph glyph-name="greater" unicode="&#x3e;" horiz-adv-x="847" 
d="M50 208l519 153l-519 154v146l747 -236v-128l-747 -236v147z" />
    <glyph glyph-name="question" unicode="?" horiz-adv-x="741" 
d="M682 279l-47 99q-78 -49 -246 -61q-177 -12 -177 42q0 10 5.5 17.5t18 12.5t26.5 7.5t38.5 4.5t46 3t56.5 3t62 4q43 3 71 7t60.5 14t51 25t31.5 41.5t13 63.5q0 86 -86.5 129.5t-223.5 42.5q-96 -1 -185 -23.5t-146 -63.5l52 -103q111 78 272 78q176 0 176 -50
q0 -27 -24 -34t-107 -10q-65 -2 -107 -5q-235 -15 -235 -153q0 -78 84 -123t231 -38q184 10 289 70zM371 -10q41 0 65 21t24 61t-24 61t-65 21t-65 -21t-24 -61t24 -61t65 -21z" />
    <glyph glyph-name="at" unicode="@" horiz-adv-x="1244" 
d="M615 -71q-255 0 -410 109.5t-155 288.5q0 185 163 300t425 115q249 0 402.5 -99.5t153.5 -260.5q0 -100 -66 -161t-174 -61q-115 0 -162 69q-72 -69 -215 -69q-115 0 -182 45t-67 124q0 86 79 140t205 54q117 0 180 -49l7 29h120q-37 -145 -37 -176t18.5 -48t52.5 -17
q47 0 75.5 36.5t28.5 96.5q0 100 -112.5 167t-297.5 67q-210 0 -335 -81.5t-125 -219.5q0 -132 117 -209t315 -77q181 0 327 64l9 -115q-148 -62 -340 -62zM594 266q77 0 119 22.5t42 62.5q0 31 -35 48t-101 17q-75 0 -116 -20.5t-41 -57.5q0 -33 34.5 -52.5t97.5 -19.5z
" />
    <glyph glyph-name="A" unicode="A" 
d="M0 0l3 6l21 36l379 658l20 34h163l398 -689l23 -39l3 -6h-191l-2 5l-13 23l-69 133h-462l-65 -125l-17 -30l-4 -6h-187zM340 279h326l-163 309z" />
    <glyph glyph-name="B" unicode="B" horiz-adv-x="994" 
d="M81 0h476q213 0 305 46t92 153q0 62 -31.5 103.5t-103.5 74.5q61 32 87.5 70.5t26.5 93.5q0 103 -93.5 148t-308.5 45h-451zM252 443v171h319q89 0 127 -19t38 -63q0 -48 -38 -68.5t-127 -20.5h-319zM253 129v191h358q78 0 112 -22t34 -73q0 -52 -34 -74t-112 -22h-358z
" />
    <glyph glyph-name="C" unicode="C" horiz-adv-x="1044" 
d="M943 214l40 -147q-63 -44 -175 -70.5t-233 -26.5q-241 0 -388 107.5t-147 282.5q0 176 147 283t388 107q118 0 230.5 -33.5t178.5 -88.5l-5 -19l-4 -15l-38 -113l-3 -10q-74 56 -172.5 90t-184.5 34q-160 0 -257.5 -64.5t-97.5 -170.5t97.5 -171t257.5 -65q109 0 210 25
t156 65z" />
    <glyph glyph-name="D" unicode="D" horiz-adv-x="1093" 
d="M80 0h471q248 0 375 95.5t127 281.5q0 174 -127.5 263.5t-374.5 89.5h-471v-730zM252 600h299q155 0 235 -57t80 -169q0 -118 -80 -179t-235 -61h-299v466z" />
    <glyph glyph-name="E" unicode="E" horiz-adv-x="1059" 
d="M80 734h891v-140h-717v-149h548v-140h-548v-165h725v-140h-899v734z" />
    <glyph glyph-name="F" unicode="F" horiz-adv-x="941" 
d="M80 734h841v-140h-667v-169h498v-140h-498v-285h-174v734z" />
    <glyph glyph-name="G" unicode="G" horiz-adv-x="1071" 
d="M1001 408v-287v-85v-4l-87 -27q-120 -35 -330 -35q-245 0 -394.5 107.5t-149.5 282.5t149.5 282.5t394.5 107.5q111 0 215 -29.5t162 -78.5l-5 -20l-3 -13l-24 -109l-1 -5q-64 48 -158.5 80.5t-185.5 32.5q-162 0 -262 -70.5t-100 -178.5q0 -111 100 -182t262 -71
q146 0 247 38v124h-399v140h569z" />
    <glyph glyph-name="H" unicode="H" horiz-adv-x="1114" 
d="M860 734h174v-734h-174v305h-606v-305h-174v734h174v-289h606v289z" />
    <glyph glyph-name="I" unicode="I" horiz-adv-x="330" 
d="M80 734h170v-734h-170v734z" />
    <glyph glyph-name="J" unicode="J" horiz-adv-x="895" 
d="M10 251h170q0 -56 61 -88.5t176 -32.5t170 67t55 220v177h-284l-1 140h459l1 -337q2 -204 -104.5 -311.5t-305.5 -105.5q-188 2 -292.5 77.5t-104.5 193.5z" />
    <glyph glyph-name="K" unicode="K" horiz-adv-x="1012" 
d="M757 0l-326 369l-178 -117v-252h-173v734h173v-316l475 316h223l-389 -278l395 -456h-200z" />
    <glyph glyph-name="L" unicode="L" horiz-adv-x="976" 
d="M80 734h174v-594h642v-140h-816v734z" />
    <glyph glyph-name="M" unicode="M" horiz-adv-x="1250" 
d="M80 0v734h184l366 -453l366 453h174v-734h-161v511l-317 -383l-9 -10h-117l-325 393v-511h-161z" />
    <glyph glyph-name="N" unicode="N" horiz-adv-x="1085" 
d="M80 734h205l547 -556v556h173v-734h-205l-546 531v-531h-174v734z" />
    <glyph glyph-name="O" unicode="O" horiz-adv-x="1095" 
d="M549 -30q-235 0 -372 105t-137 285q0 181 138 291t371 110q232 0 369 -110t137 -291q0 -180 -136.5 -285t-369.5 -105zM549 104q151 0 239 69t87 187q1 124 -87.5 200t-238.5 76q-151 0 -240.5 -76t-88.5 -200q-1 -118 88 -187t241 -69z" />
    <glyph glyph-name="P" unicode="P" horiz-adv-x="993" 
d="M80 0h172v265h279q226 0 324 54.5t98 180.5q0 125 -98 179.5t-324 54.5h-451v-734zM255 610h306q108 0 155 -25.5t47 -84.5t-47 -84.5t-155 -25.5h-306v220z" />
    <glyph glyph-name="Q" unicode="Q" horiz-adv-x="1055" 
d="M1035 360q0 -105 -52 -188t-148 -134l33 -43l54 -67l6 -8h-200l-49 64q-73 -14 -150 -14q-229 0 -369 107.5t-140 282.5q0 181 140 291t369 110q228 0 367 -110t139 -291zM745 156q114 71 114 204q0 125 -91 202t-239 77q-150 0 -241.5 -77t-91.5 -202
q0 -116 91.5 -187.5t241.5 -71.5q29 0 57 3l-128 165h200z" />
    <glyph glyph-name="R" unicode="R" horiz-adv-x="993" 
d="M892 75l54 -67l6 -8h-200l-210 265h-11h-279v-265h-172v734h451q226 0 324 -54.5t98 -179.5q0 -94 -53 -147t-169 -74zM255 610v-220h306q108 0 155 25.5t47 84.5t-47 84.5t-155 25.5h-306z" />
    <glyph glyph-name="S" unicode="S" horiz-adv-x="1036" 
d="M40 82l59 137q180 -106 407 -104q315 2 315 104q0 40 -60 57.5t-205 23.5q-242 11 -361 66.5t-119 160.5q0 115 104.5 174t307.5 60q259 1 458 -96l-48 -143q-170 97 -413 96q-131 -2 -188 -21.5t-57 -63.5q0 -43 66 -62.5t215 -24.5q238 -8 356.5 -63t118.5 -164
q0 -122 -129.5 -185t-380.5 -63q-248 0 -446 111z" />
    <glyph glyph-name="T" unicode="T" horiz-adv-x="970" 
d="M40 594v140h890v-140h-358v-594h-174v594h-358z" />
    <glyph glyph-name="U" unicode="U" horiz-adv-x="1030" 
d="M75 320v413h170v-372q0 -111 67.5 -181t202.5 -70t202.5 70t67.5 181v372h169l1 -413q0 -159 -111.5 -254.5t-328.5 -95.5t-328.5 95.5t-111.5 254.5z" />
    <glyph glyph-name="V" unicode="V" 
d="M1010 734l-3 -6l-21 -36l-379 -658l-20 -34h-163l-398 689l-23 39l-3 6h191l2 -5l13 -23l69 -128l236 -408l291 528l17 30l4 6h187z" />
    <glyph glyph-name="W" unicode="W" horiz-adv-x="1425" 
d="M1105 0h-197l-196 540l-195 -540h-197l-280 734h210l176 -521l197 521h193l194 -521l176 521h199z" />
    <glyph glyph-name="X" unicode="X" horiz-adv-x="1030" 
d="M514 261l-275 -261h-226l-3 4l387 368l-377 358l3 4h228l264 -250l264 250h226l3 -4l-376 -357l388 -369l-3 -4h-228z" />
    <glyph glyph-name="Y" unicode="Y" horiz-adv-x="1096" 
d="M853 734h203l-421 -501v-233h-171v233l-424 501h204l306 -361z" />
    <glyph glyph-name="Z" unicode="Z" horiz-adv-x="972" 
d="M888 593l-579 -455h588v-138h-822v131l590 455h-579v138h802v-131z" />
    <glyph glyph-name="bracketleft" unicode="[" horiz-adv-x="403" 
d="M50 842h333v-120h-174v-812h174v-120h-333v1052z" />
    <glyph glyph-name="backslash" unicode="\" horiz-adv-x="810" 
d="M787 -122h-149l-618 965l3 4h149l618 -965z" />
    <glyph glyph-name="bracketright" unicode="]" horiz-adv-x="403" 
d="M353 842v-1052h-333v120h174v812h-174v120h333z" />
    <glyph glyph-name="asciicircum" unicode="^" horiz-adv-x="800" 
d="M400 840l-189 -400h-161l286 577h128l286 -577h-159z" />
    <glyph glyph-name="underscore" unicode="_" horiz-adv-x="1080" 
d="M50 0h980v-119h-980v119z" />
    <glyph glyph-name="grave" unicode="`" horiz-adv-x="600" 
d="M360 801h-158l-152 196l2 3h201l109 -196z" />
    <glyph glyph-name="a" unicode="a" horiz-adv-x="895" 
d="M840 -1h-180v74q-44 -40 -133 -65.5t-174 -25.5q-153 0 -225.5 37t-72.5 126q0 82 87 123.5t282 41.5h236q-1 31 -18.5 52t-51 31t-70 13.5t-88.5 3.5q-82 0 -173 -23t-141 -63l-2 6l-38 116q43 37 147 65.5t207 28.5q184 0 286 -64.5t102 -173.5v-200l20 -100v-3z
M398 99q116 0 189 30t73 80v9h-263q-95 0 -133 -14.5t-38 -48.5q0 -31 37.5 -43.5t134.5 -12.5z" />
    <glyph glyph-name="b" unicode="b" horiz-adv-x="889" 
d="M506 519q155 0 249.5 -75t93.5 -196q-1 -126 -94.5 -201.5t-248.5 -75.5q-81 0 -151.5 26t-106.5 70l-9 -67h-159v750h168v-323q34 39 105.5 65.5t152.5 26.5zM480 91q88 0 141.5 43t53.5 114q0 70 -53.5 113t-141.5 43q-78 0 -141.5 -19.5t-90.5 -51.5v-173
q24 -31 87.5 -50t144.5 -19z" />
    <glyph glyph-name="c" unicode="c" horiz-adv-x="835" 
d="M40 256q0 128 114.5 207t292.5 79q199 0 348 -84l-58 -121q-36 29 -120.5 52t-169.5 23q-104 0 -168 -43t-64 -113t64 -113t168 -43q90 0 173 17t116 44l58 -122q-124 -69 -347 -69q-178 0 -292.5 79t-114.5 207z" />
    <glyph glyph-name="d" unicode="d" horiz-adv-x="889" 
d="M641 750h168v-750h-168v66q-36 -44 -107 -70t-151 -26q-155 0 -248.5 75.5t-94.5 201.5q-1 121 93.5 196t249.5 75q81 0 152.5 -26.5t105.5 -65.5v324zM409 90q81 0 144.5 19t87.5 50v173q-27 32 -90.5 51.5t-141.5 19.5q-88 0 -141.5 -43t-53.5 -113q0 -71 53.5 -114
t141.5 -43z" />
    <glyph glyph-name="e" unicode="e" horiz-adv-x="884" 
d="M844 207h-629q0 -59 63.5 -83t178.5 -24q88 0 166.5 14t112.5 37l48 -112q-110 -63 -327 -63q-189 0 -303 72t-114 192q0 131 108 216.5t290 85.5q204 0 305 -91t101 -244zM217 301h452q0 52 -64 80t-163 28q-98 0 -161.5 -28t-63.5 -80z" />
    <glyph glyph-name="f" unicode="f" horiz-adv-x="634" 
d="M607 712q-65 52 -155 62.5t-171 -23.5q-72 -31 -110 -95.5t-40 -144.5h-91v-120h91l-1 -351v-40h161v42l2 350h228v120h-228q3 89 65 124q46 29 110 16.5t105 -65.5l1 4z" />
    <glyph glyph-name="g" unicode="g" horiz-adv-x="840" 
d="M615 500h165v-455q0 -136 -84 -195.5t-279 -62.5q-190 -3 -322 43v129q176 -64 322 -53q111 8 159 37t47 88v24q-74 -75 -251 -75q-152 0 -242.5 70t-89.5 191q1 127 91.5 202t240.5 75q75 0 141.5 -24t102.5 -66zM397 85q72 0 133 18.5t91 49.5l-3 180q-26 29 -86 47
t-135 18q-85 0 -137 -43.5t-52 -113.5t52 -113t137 -43z" />
    <glyph glyph-name="h" unicode="h" horiz-adv-x="938" 
d="M531 539q82 0 142 -18t96 -47.5t57.5 -76t29 -94.5t7.5 -112v-191h-168v191q0 112 -46.5 165t-143.5 53q-163 0 -257 -91v-318h-168v750h168v-322q107 111 283 111z" />
    <glyph glyph-name="i" unicode="i" horiz-adv-x="338" 
d="M169 586q41 0 65 21t24 61t-24 61t-65 21t-65 -21t-24 -61t24 -61t65 -21zM85 500h168v-500h-168v500z" />
    <glyph glyph-name="j" unicode="j" horiz-adv-x="528" 
d="M364 586q41 0 65 21t24 61t-24 61t-65 21t-65 -21t-24 -61t24 -61t65 -21zM25 -20q37 -25 67.5 -34.5t76.5 -9.5q65 0 88.5 34t23.5 127v403h168v-403q0 -154 -62 -233t-182 -79q-126 0 -180 42v153z" />
    <glyph glyph-name="k" unicode="k" horiz-adv-x="876" 
d="M835 1l1 -1h-253l-1 1l-37 35l-180 174l-117 -80v-130h-168v750h168v-461l289 208l5 3h244l-6 -4l-270 -185z" />
    <glyph glyph-name="l" unicode="l" horiz-adv-x="328" 
d="M80 750h168v-750h-168v750z" />
    <glyph glyph-name="m" unicode="m" horiz-adv-x="1393" 
d="M1014 539q90 0 151.5 -26t94 -75.5t45.5 -108.5t13 -138v-191h-158v191q0 112 -41.5 165t-127.5 53q-109 0 -201 -74q14 -60 14 -144v-191h-159v191q0 112 -41 165t-127 53q-63 0 -124 -27.5t-108 -72.5v-309h-165v500h165v-82q50 53 116 87t139 34q189 0 259 -122
q50 53 116 87.5t139 34.5z" />
    <glyph glyph-name="n" unicode="n" horiz-adv-x="938" 
d="M531 539q82 0 142 -18t96 -47.5t57.5 -76t29 -94.5t7.5 -112v-191h-168v191q0 112 -46.5 165t-143.5 53q-145 0 -257 -97v-312h-168v500h168v-79q124 118 283 118z" />
    <glyph glyph-name="o" unicode="o" horiz-adv-x="896" 
d="M448 -30q-181 0 -294.5 77t-113.5 202q0 132 113 212.5t295 80.5q178 0 293 -81t115 -212q0 -125 -115 -202t-293 -77zM448 89q105 0 169 44t64 116q0 73 -64 118t-169 45t-169 -45t-64 -118q0 -72 64 -116t169 -44z" />
    <glyph glyph-name="p" unicode="p" horiz-adv-x="869" 
d="M829 241q1 -121 -93.5 -196t-249.5 -75q-81 0 -152.5 26.5t-105.5 65.5v-262h-168v700h168v-78q36 44 107 70t151 26q155 0 248.5 -75.5t94.5 -201.5zM460 85q88 0 141.5 43t53.5 113q0 71 -53.5 114t-141.5 43q-80 0 -144 -19t-88 -50v-173q27 -32 91.5 -51.5
t140.5 -19.5z" />
    <glyph glyph-name="q" unicode="q" horiz-adv-x="889" 
d="M650 503h159v-705h-168v264q-34 -39 -105.5 -65.5t-152.5 -26.5q-155 0 -249.5 75t-93.5 196q1 126 94.5 201.5t248.5 75.5q81 0 152 -26t107 -71zM409 85q78 0 141.5 19.5t90.5 51.5v173q-24 31 -87.5 50t-144.5 19q-88 0 -141.5 -43t-53.5 -114q0 -70 53.5 -113
t141.5 -43z" />
    <glyph glyph-name="r" unicode="r" horiz-adv-x="627" 
d="M352 500q48 26 112.5 33.5t117.5 -6.5v-148q-99 22 -196 -2q-38 -10 -79.5 -34.5t-57.5 -55.5l-1 9v-296h-168v500h168v-94q17 28 47 54t57 40z" />
    <glyph glyph-name="s" unicode="s" horiz-adv-x="838" 
d="M766 470q-43 18 -71 28.5t-98.5 24.5t-152.5 18q-171 8 -266 -41t-95 -133q0 -64 69 -111t198 -56q58 -4 143 -8q49 -2 69 -3.5t40 -6t25 -12.5t5 -23q0 -53 -208 -53q-192 0 -323 84l-61 -112q68 -45 173 -69t218 -24q163 0 265 46.5t102 139.5q-1 40 -16.5 68.5
t-37.5 45t-60.5 27t-71 14.5t-83.5 8q-33 2 -74 4.5t-66.5 3.5t-54 3t-45 5t-31.5 8t-21.5 13t-6.5 19q0 58 209 46q163 -9 272 -62z" />
    <glyph glyph-name="t" unicode="t" horiz-adv-x="637" 
d="M597 -6q-83 -30 -186 -30q-104 0 -174 61.5t-70 151.5v243h-127v124h133l18 142h145v-142h258v-124h-259v-223q0 -56 26.5 -81.5t84.5 -25.5q56 0 151 30v-126z" />
    <glyph glyph-name="u" unicode="u" horiz-adv-x="898" 
d="M818 500v-500h-168v68q-41 -47 -99.5 -72.5t-153.5 -25.5q-82 0 -141 17t-93.5 45t-54.5 73.5t-26.5 92t-6.5 111.5v191h168v-191q0 -113 42 -165.5t138 -52.5q149 0 227 85v324h168z" />
    <glyph glyph-name="v" unicode="v" horiz-adv-x="860" 
d="M262 424l-44 71l-3 5h-190l3 -5l307 -495h190l10 15l254 409l43 71l3 5h-190l-3 -5l-43 -71l-165 -283z" />
    <glyph glyph-name="w" unicode="w" horiz-adv-x="1281" 
d="M1072 500h184l-2 -5l-38 -71l-216 -409l-7 -15h-187l-174 331l-160 -316l-7 -15h-186l-214 424l-37 71l-3 5h184l1 -2l34 -75l125 -282l173 359h176l3 -6l34 -70l142 -283l138 283l34 71z" />
    <glyph glyph-name="x" unicode="x" horiz-adv-x="922" 
d="M343 256l-304 241l3 3h219l200 -162l200 162h219l3 -3l-304 -241l318 -253l-3 -3h-219l-214 173l-214 -173h-219l-3 3z" />
    <glyph glyph-name="y" unicode="y" horiz-adv-x="845" 
d="M148 -58l-41 -129q70 -25 135 -22t127.5 44t109.5 116l338 544l3 5h-180l-3 -5l-216 -354l-216 359h-180l3 -5l302 -494q0 -49 -57 -69.5t-125 10.5z" />
    <glyph glyph-name="z" unicode="z" horiz-adv-x="886" 
d="M811 0h-729v102l453 296h-460v121h729v-102l-453 -296h460v-121z" />
    <glyph glyph-name="braceleft" unicode="{" horiz-adv-x="541" 
d="M348 -210q-74 0 -117 42t-43 113v182q0 55 -29 89t-84 34h-25v132h25q55 0 84 34t29 89v182q0 71 43 113t117 42h173v-120h-147q-27 0 -27 -32v-162q0 -87 -29 -138t-98 -74q69 -23 98 -74t29 -138v-162q0 -32 27 -32h147v-120h-173z" />
    <glyph glyph-name="bar" unicode="|" horiz-adv-x="255" 
d="M65 882h125v-1082h-125v1082z" />
    <glyph glyph-name="braceright" unicode="}" horiz-adv-x="541" 
d="M353 -55q0 -71 -43 -113t-117 -42h-173v120h147q27 0 27 32v162q0 87 29 138t98 74q-69 23 -98 74t-29 138v162q0 32 -27 32h-147v120h173q74 0 117 -42t43 -113v-182q0 -55 29 -89t84 -34h25v-132h-25q-55 0 -84 -34t-29 -89v-182z" />
    <glyph glyph-name="exclamdown" unicode="&#xa1;" horiz-adv-x="278" 
d="M139 544q-41 0 -65 -21t-24 -61t24 -61t65 -21t65 21t24 61t-24 61t-65 21zM70 -200v284l10 216h118l10 -216v-284h-138z" />
    <glyph glyph-name="cent" unicode="&#xa2;" horiz-adv-x="855" 
d="M457 100q90 0 173 17t116 44l58 -122q-124 -69 -347 -69q-58 0 -109 9l-58 -91h-149l-3 4l81 126q-80 37 -124.5 99t-44.5 139q0 128 114.5 207t292.5 79q49 0 94 -6l79 124h155l-98 -152q66 -21 118 -50l-58 -121q-42 34 -134 55l-186 -291q9 -1 30 -1zM225 256
q0 -74 71 -118l175 274h-14q-104 0 -168 -43t-64 -113z" />
    <glyph glyph-name="sterling" unicode="&#xa3;" 
d="M960 51q-115 -65 -223 -65q-70 0 -195 38t-195 38q-96 0 -238 -62l-59 134q89 35 122.5 60t33.5 55q0 20 -20 60h-135v129h75q-6 26 -6 55q0 107 115 178t287 71q124 0 210 -25t169 -80l-5 -166q-88 64 -172.5 91.5t-191.5 27.5q-95 0 -162 -32t-67 -78q0 -17 10 -42h452
v-129h-400q2 -12 2 -18q0 -74 -81 -123q80 23 146 23q63 0 159 -30t149 -30q56 0 102.5 15t113.5 55z" />
    <glyph glyph-name="dieresis" unicode="&#xa8;" horiz-adv-x="526" 
d="M139 734q41 0 65 21t24 61t-24 61t-65 21t-65 -21t-24 -61t24 -61t65 -21zM387 734q41 0 65 21t24 61t-24 61t-65 21t-65 -21t-24 -61t24 -61t65 -21z" />
    <glyph glyph-name="copyright" unicode="&#xa9;" horiz-adv-x="1206" 
d="M603 -2q-257 0 -405 98.5t-148 268.5t148 268.5t405 98.5t405 -98.5t148 -268.5t-148 -268.5t-405 -98.5zM603 104q196 0 307 69.5t111 191.5t-111 191.5t-307 69.5t-307 -69.5t-111 -191.5t111 -191.5t307 -69.5zM619 175q-145 0 -224 50.5t-79 139.5q0 88 77.5 139
t215.5 51q125 0 225 -45l-6 -104q-105 50 -204 50q-88 0 -134.5 -24.5t-46.5 -67.5q0 -42 46 -66t135 -24q96 0 205 50l4 -104q-96 -45 -214 -45z" />
    <glyph glyph-name="guillemotleft" unicode="&#xab;" horiz-adv-x="807" 
d="M50 226v120l334 180v-160l-157 -80l157 -80v-160zM423 226v120l334 180v-160l-157 -80l157 -80v-160z" />
    <glyph glyph-name="macron" unicode="&#xaf;" horiz-adv-x="662" 
d="M50 1000h562v-126h-562v126z" />
    <glyph glyph-name="degree" unicode="&#xb0;" horiz-adv-x="564" 
d="M282 444q-105 0 -168.5 51t-63.5 134t63.5 134t168.5 51t168.5 -51t63.5 -134t-63.5 -134t-168.5 -51zM282 524q62 0 98.5 29t36.5 76t-36.5 76t-98.5 29t-98.5 -29t-36.5 -76t36.5 -76t98.5 -29z" />
    <glyph glyph-name="paragraph" unicode="&#xb6;" horiz-adv-x="1226" 
d="M677 0v224h-248q-184 0 -281.5 65.5t-97.5 189.5t98.5 189.5t285.5 65.5h742v-734h-170v585h-159v-585h-170zM677 373v212h-238q-106 0 -152.5 -25t-46.5 -80t47 -81t152 -26h238z" />
    <glyph glyph-name="cedilla" unicode="&#xb8;" horiz-adv-x="389" 
d="M50 -182l124 182h165l-103 -186h-184z" />
    <glyph glyph-name="guillemotright" unicode="&#xbb;" horiz-adv-x="807" 
d="M50 206l157 80l-157 80v160l334 -180v-120l-334 -180v160zM423 206l157 80l-157 80v160l334 -180v-120l-334 -180v160z" />
    <glyph glyph-name="questiondown" unicode="&#xbf;" horiz-adv-x="741" 
d="M371 545q-41 0 -65 -21t-24 -61t24 -61t65 -21t65 21t24 61t-24 61t-65 21zM60 256l47 -99q81 51 246 61q177 12 177 -42q0 -14 -10 -23t-36 -13.5t-49 -6t-73.5 -4t-84.5 -5.5q-43 -3 -71 -7t-60.5 -14t-51 -25t-31.5 -41.5t-13 -63.5q0 -86 86.5 -129.5t223.5 -42.5
q96 1 185 23.5t146 63.5l-52 103q-111 -78 -272 -78q-176 0 -176 50q0 27 24 34t107 10q65 2 107 5q235 15 235 153q0 78 -84.5 123.5t-230.5 37.5q-184 -10 -289 -70z" />
    <glyph glyph-name="Agrave" unicode="&#xc0;" 
d="M577 800h-156l-171 210l2 3h205l122 -210zM0 0l3 6l21 36l379 658l20 34h163l398 -689l23 -39l3 -6h-191l-2 5l-13 23l-69 133h-462l-65 -125l-17 -30l-4 -6h-187zM340 279h326l-163 309z" />
    <glyph glyph-name="Aacute" unicode="&#xc1;" 
d="M430 803l122 210h205l2 -3l-171 -210h-156zM0 0l3 6l21 36l379 658l20 34h163l398 -689l23 -39l3 -6h-191l-2 5l-13 23l-69 133h-462l-65 -125l-17 -30l-4 -6h-187zM340 279h326l-163 309z" />
    <glyph glyph-name="Acircumflex" unicode="&#xc2;" 
d="M506 930l-148 -130h-189l-2 3l224 210h228l224 -209l-2 -4h-187zM0 0l3 6l21 36l379 658l20 34h163l398 -689l23 -39l3 -6h-191l-2 5l-13 23l-69 133h-462l-65 -125l-17 -30l-4 -6h-187zM340 279h326l-163 309z" />
    <glyph glyph-name="Atilde" unicode="&#xc3;" 
d="M651 800q-58 0 -150.5 37t-116.5 37q-26 0 -42.5 -18.5t-15.5 -48.5l-3 -2h-134q-5 83 45 135t136 52q61 0 150.5 -37t113.5 -37q25 0 38.5 17.5t11.5 47.5l3 2h134q2 -84 -44 -134.5t-126 -50.5zM0 0l3 6l21 36l379 658l20 34h163l398 -689l23 -39l3 -6h-191l-2 5
l-13 23l-69 133h-462l-65 -125l-17 -30l-4 -6h-187zM340 279h326l-163 309z" />
    <glyph glyph-name="Adieresis" unicode="&#xc4;" 
d="M381 800q41 0 65 21t24 61t-24 61t-65 21t-65 -21t-24 -61t24 -61t65 -21zM629 800q41 0 65 21t24 61t-24 61t-65 21t-65 -21t-24 -61t24 -61t65 -21zM0 0l3 6l21 36l379 658l20 34h163l398 -689l23 -39l3 -6h-191l-2 5l-13 23l-69 133h-462l-65 -125l-17 -30l-4 -6h-187
zM340 279h326l-163 309z" />
    <glyph glyph-name="Aring" unicode="&#xc5;" 
d="M505 800q-99 0 -154 35.5t-55 96.5t54.5 95.5t154.5 34.5t154.5 -34.5t54.5 -95.5t-55 -96.5t-154 -35.5zM505 880q40 0 63.5 15t23.5 37q0 21 -23.5 35.5t-63.5 14.5t-63.5 -14.5t-23.5 -35.5q0 -22 23.5 -37t63.5 -15zM0 0l3 6l21 36l379 658l20 34h163l398 -689
l23 -39l3 -6h-191l-2 5l-13 23l-69 133h-462l-65 -125l-17 -30l-4 -6h-187zM340 279h326l-163 309z" />
    <glyph glyph-name="AE" unicode="&#xc6;" horiz-adv-x="1894" 
d="M935 156h-477l-148 -156h-235l700 734h1044v-149h-694v-136h650v-129h-650v-170h694v-150h-884v156zM935 575h-78l-276 -291h354v291z" />
    <glyph glyph-name="Ccedilla" unicode="&#xc7;" horiz-adv-x="1044" 
d="M943 214l40 -147q-53 -36 -142 -61t-190 -33l-88 -159h-184l-2 4l107 156q-203 20 -323.5 124t-120.5 262q0 176 147 283t388 107q118 0 230.5 -33.5t178.5 -88.5l-5 -19l-4 -15l-38 -113l-3 -10q-74 56 -172.5 90t-184.5 34q-160 0 -257.5 -64.5t-97.5 -170.5t97.5 -171
t257.5 -65q109 0 210 25t156 65z" />
    <glyph glyph-name="Egrave" unicode="&#xc8;" horiz-adv-x="1059" 
d="M692 800h-156l-171 210l2 3h205l122 -210zM80 734h891v-140h-717v-149h548v-140h-548v-165h725v-140h-899v734z" />
    <glyph glyph-name="Eacute" unicode="&#xc9;" horiz-adv-x="1059" 
d="M365 803l122 210h205l2 -3l-171 -210h-156zM80 734h891v-140h-717v-149h548v-140h-548v-165h725v-140h-899v734z" />
    <glyph glyph-name="Ecircumflex" unicode="&#xca;" horiz-adv-x="1059" 
d="M531 930l-148 -130h-189l-2 3l224 210h228l224 -209l-2 -4h-187zM80 734h891v-140h-717v-149h548v-140h-548v-165h725v-140h-899v734z" />
    <glyph glyph-name="Edieresis" unicode="&#xcb;" horiz-adv-x="1059" 
d="M406 800q41 0 65 21t24 61t-24 61t-65 21t-65 -21t-24 -61t24 -61t65 -21zM654 800q41 0 65 21t24 61t-24 61t-65 21t-65 -21t-24 -61t24 -61t65 -21zM80 734h891v-140h-717v-149h548v-140h-548v-165h725v-140h-899v734z" />
    <glyph glyph-name="Igrave" unicode="&#xcc;" horiz-adv-x="330" 
d="M237 800h-156l-171 210l2 3h205l122 -210zM80 734h170v-734h-170v734z" />
    <glyph glyph-name="Iacute" unicode="&#xcd;" horiz-adv-x="330" 
d="M90 803l122 210h205l2 -3l-171 -210h-156zM80 734h170v-734h-170v734z" />
    <glyph glyph-name="Ntilde" unicode="&#xd1;" horiz-adv-x="1085" 
d="M689 800q-58 0 -150.5 37t-116.5 37q-26 0 -42.5 -18.5t-15.5 -48.5l-3 -2h-134q-5 83 45 135t136 52q61 0 150.5 -37t113.5 -37q25 0 38.5 17.5t11.5 47.5l3 2h134q2 -84 -44 -134.5t-126 -50.5zM80 734h205l547 -556v556h173v-734h-205l-546 531v-531h-174v734z" />
    <glyph glyph-name="Ograve" unicode="&#xd2;" horiz-adv-x="1095" 
d="M710 800h-156l-171 210l2 3h205l122 -210zM549 -30q-235 0 -372 105t-137 285q0 181 138 291t371 110q232 0 369 -110t137 -291q0 -180 -136.5 -285t-369.5 -105zM549 104q151 0 239 69t87 187q1 124 -87.5 200t-238.5 76q-151 0 -240.5 -76t-88.5 -200q-1 -118 88 -187
t241 -69z" />
    <glyph glyph-name="Oacute" unicode="&#xd3;" horiz-adv-x="1095" 
d="M383 803l122 210h205l2 -3l-171 -210h-156zM549 -30q-235 0 -372 105t-137 285q0 181 138 291t371 110q232 0 369 -110t137 -291q0 -180 -136.5 -285t-369.5 -105zM549 104q151 0 239 69t87 187q1 124 -87.5 200t-238.5 76q-151 0 -240.5 -76t-88.5 -200q-1 -118 88 -187
t241 -69z" />
    <glyph glyph-name="Ocircumflex" unicode="&#xd4;" horiz-adv-x="1095" 
d="M549 930l-148 -130h-189l-2 3l224 210h228l224 -209l-2 -4h-187zM549 -30q-235 0 -372 105t-137 285q0 181 138 291t371 110q232 0 369 -110t137 -291q0 -180 -136.5 -285t-369.5 -105zM549 104q151 0 239 69t87 187q1 124 -87.5 200t-238.5 76q-151 0 -240.5 -76
t-88.5 -200q-1 -118 88 -187t241 -69z" />
    <glyph glyph-name="Otilde" unicode="&#xd5;" horiz-adv-x="1095" 
d="M694 800q-58 0 -150.5 37t-116.5 37q-26 0 -42.5 -18.5t-15.5 -48.5l-3 -2h-134q-5 83 45 135t136 52q61 0 150.5 -37t113.5 -37q25 0 38.5 17.5t11.5 47.5l3 2h134q2 -84 -44 -134.5t-126 -50.5zM549 -30q-235 0 -372 105t-137 285q0 181 138 291t371 110
q232 0 369 -110t137 -291q0 -180 -136.5 -285t-369.5 -105zM549 104q151 0 239 69t87 187q1 124 -87.5 200t-238.5 76q-151 0 -240.5 -76t-88.5 -200q-1 -118 88 -187t241 -69z" />
    <glyph glyph-name="Odieresis" unicode="&#xd6;" horiz-adv-x="1095" 
d="M424 800q41 0 65 21t24 61t-24 61t-65 21t-65 -21t-24 -61t24 -61t65 -21zM672 800q41 0 65 21t24 61t-24 61t-65 21t-65 -21t-24 -61t24 -61t65 -21zM549 -30q-235 0 -372 105t-137 285q0 181 138 291t371 110q232 0 369 -110t137 -291q0 -180 -136.5 -285t-369.5 -105z
M549 104q151 0 239 69t87 187q1 124 -87.5 200t-238.5 76q-151 0 -240.5 -76t-88.5 -200q-1 -118 88 -187t241 -69z" />
    <glyph glyph-name="multiply" unicode="&#xd7;" horiz-adv-x="653" 
d="M327 270l-179 -179l-98 98l179 179l-179 178l98 98l179 -178l178 178l98 -98l-178 -178l178 -179l-98 -98z" />
    <glyph glyph-name="Oslash" unicode="&#xd8;" horiz-adv-x="1095" 
d="M833 692q105 -51 163.5 -137.5t58.5 -194.5q0 -173 -141 -281.5t-365 -108.5q-89 0 -167 18l-70 -110h-149l-3 4l96 150q-103 51 -159.5 136t-56.5 192q0 173 142 282t367 109q79 0 157 -16l72 112h149l3 -4zM226 360q0 -131 112 -200l291 454q-35 7 -80 7
q-147 0 -235 -73t-88 -188zM549 109q147 0 233.5 68.5t86.5 182.5q0 134 -115 208l-290 -452q38 -7 85 -7z" />
    <glyph glyph-name="Ugrave" unicode="&#xd9;" horiz-adv-x="1030" 
d="M677 800h-156l-171 210l2 3h205l122 -210zM75 320v413h170v-372q0 -111 67.5 -181t202.5 -70t202.5 70t67.5 181v372h169l1 -413q0 -159 -111.5 -254.5t-328.5 -95.5t-328.5 95.5t-111.5 254.5z" />
    <glyph glyph-name="Ucircumflex" unicode="&#xdb;" horiz-adv-x="1030" 
d="M516 930l-148 -130h-189l-2 3l224 210h228l224 -209l-2 -4h-187zM75 320v413h170v-372q0 -111 67.5 -181t202.5 -70t202.5 70t67.5 181v372h169l1 -413q0 -159 -111.5 -254.5t-328.5 -95.5t-328.5 95.5t-111.5 254.5z" />
    <glyph glyph-name="Udieresis" unicode="&#xdc;" horiz-adv-x="1030" 
d="M391 800q41 0 65 21t24 61t-24 61t-65 21t-65 -21t-24 -61t24 -61t65 -21zM639 800q41 0 65 21t24 61t-24 61t-65 21t-65 -21t-24 -61t24 -61t65 -21zM75 320v413h170v-372q0 -111 67.5 -181t202.5 -70t202.5 70t67.5 181v372h169l1 -413q0 -159 -111.5 -254.5
t-328.5 -95.5t-328.5 95.5t-111.5 254.5z" />
    <glyph glyph-name="Yacute" unicode="&#xdd;" horiz-adv-x="1096" 
d="M541 800h-156l-2 3l122 210h205l2 -3zM853 734h203l-421 -501v-233h-171v233l-424 501h204l306 -361z" />
    <glyph glyph-name="germandbls" unicode="&#xdf;" horiz-adv-x="1266" 
d="M769 -12q-185 0 -389 51l8 140q177 -61 401 -61q125 0 191 30.5t66 85.5q0 108 -342 108h-102q198 142 198 205q0 80 -217 80q-164 0 -248.5 -71.5t-84.5 -211.5v-344h-170v365q0 186 133 281.5t392 95.5q356 0 356 -169q0 -90 -105 -130q330 -17 330 -215
q0 -116 -106.5 -178t-310.5 -62z" />
    <glyph glyph-name="agrave" unicode="&#xe0;" horiz-adv-x="895" 
d="M610 650h-156l-171 210l2 3h205l122 -210zM840 -1h-180v74q-44 -40 -133 -65.5t-174 -25.5q-153 0 -225.5 37t-72.5 126q0 82 87 123.5t282 41.5h236q-1 31 -18.5 52t-51 31t-70 13.5t-88.5 3.5q-82 0 -173 -23t-141 -63l-2 6l-38 116q43 37 147 65.5t207 28.5
q184 0 286 -64.5t102 -173.5v-200l20 -100v-3zM398 99q116 0 189 30t73 80v9h-263q-95 0 -133 -14.5t-38 -48.5q0 -31 37.5 -43.5t134.5 -12.5z" />
    <glyph glyph-name="aacute" unicode="&#xe1;" horiz-adv-x="895" 
d="M283 653l122 210h205l2 -3l-171 -210h-156zM840 -1h-180v74q-44 -40 -133 -65.5t-174 -25.5q-153 0 -225.5 37t-72.5 126q0 82 87 123.5t282 41.5h236q-1 31 -18.5 52t-51 31t-70 13.5t-88.5 3.5q-82 0 -173 -23t-141 -63l-2 6l-38 116q43 37 147 65.5t207 28.5
q184 0 286 -64.5t102 -173.5v-200l20 -100v-3zM398 99q116 0 189 30t73 80v9h-263q-95 0 -133 -14.5t-38 -48.5q0 -31 37.5 -43.5t134.5 -12.5z" />
    <glyph glyph-name="acircumflex" unicode="&#xe2;" horiz-adv-x="895" 
d="M449 780l-148 -130h-189l-2 3l224 210h228l224 -209l-2 -4h-187zM840 -1h-180v74q-44 -40 -133 -65.5t-174 -25.5q-153 0 -225.5 37t-72.5 126q0 82 87 123.5t282 41.5h236q-1 31 -18.5 52t-51 31t-70 13.5t-88.5 3.5q-82 0 -173 -23t-141 -63l-2 6l-38 116
q43 37 147 65.5t207 28.5q184 0 286 -64.5t102 -173.5v-200l20 -100v-3zM398 99q116 0 189 30t73 80v9h-263q-95 0 -133 -14.5t-38 -48.5q0 -31 37.5 -43.5t134.5 -12.5z" />
    <glyph glyph-name="atilde" unicode="&#xe3;" horiz-adv-x="895" 
d="M594 650q-58 0 -150.5 37t-116.5 37q-26 0 -42.5 -18.5t-15.5 -48.5l-3 -2h-134q-5 83 45 135t136 52q61 0 150.5 -37t113.5 -37q25 0 38.5 17.5t11.5 47.5l3 2h134q2 -84 -44 -134.5t-126 -50.5zM840 -1h-180v74q-44 -40 -133 -65.5t-174 -25.5q-153 0 -225.5 37
t-72.5 126q0 82 87 123.5t282 41.5h236q-1 31 -18.5 52t-51 31t-70 13.5t-88.5 3.5q-82 0 -173 -23t-141 -63l-2 6l-38 116q43 37 147 65.5t207 28.5q184 0 286 -64.5t102 -173.5v-200l20 -100v-3zM398 99q116 0 189 30t73 80v9h-263q-95 0 -133 -14.5t-38 -48.5
q0 -31 37.5 -43.5t134.5 -12.5z" />
    <glyph glyph-name="adieresis" unicode="&#xe4;" horiz-adv-x="895" 
d="M324 650q41 0 65 21t24 61t-24 61t-65 21t-65 -21t-24 -61t24 -61t65 -21zM572 650q41 0 65 21t24 61t-24 61t-65 21t-65 -21t-24 -61t24 -61t65 -21zM840 -1h-180v74q-44 -40 -133 -65.5t-174 -25.5q-153 0 -225.5 37t-72.5 126q0 82 87 123.5t282 41.5h236
q-1 31 -18.5 52t-51 31t-70 13.5t-88.5 3.5q-82 0 -173 -23t-141 -63l-2 6l-38 116q43 37 147 65.5t207 28.5q184 0 286 -64.5t102 -173.5v-200l20 -100v-3zM398 99q116 0 189 30t73 80v9h-263q-95 0 -133 -14.5t-38 -48.5q0 -31 37.5 -43.5t134.5 -12.5z" />
    <glyph glyph-name="aring" unicode="&#xe5;" horiz-adv-x="895" 
d="M448 650q-99 0 -154 35.5t-55 96.5t54.5 95.5t154.5 34.5t154.5 -34.5t54.5 -95.5t-55 -96.5t-154 -35.5zM448 730q40 0 63.5 15t23.5 37q0 21 -23.5 35.5t-63.5 14.5t-63.5 -14.5t-23.5 -35.5q0 -22 23.5 -37t63.5 -15zM840 -1h-180v74q-44 -40 -133 -65.5t-174 -25.5
q-153 0 -225.5 37t-72.5 126q0 82 87 123.5t282 41.5h236q-1 31 -18.5 52t-51 31t-70 13.5t-88.5 3.5q-82 0 -173 -23t-141 -63l-2 6l-38 116q43 37 147 65.5t207 28.5q184 0 286 -64.5t102 -173.5v-200l20 -100v-3zM398 99q116 0 189 30t73 80v9h-263q-95 0 -133 -14.5
t-38 -48.5q0 -31 37.5 -43.5t134.5 -12.5z" />
    <glyph glyph-name="ae" unicode="&#xe6;" horiz-adv-x="1526" 
d="M1099 100q88 0 166.5 14t112.5 37l48 -112q-110 -63 -327 -63q-129 0 -225.5 35t-146.5 98h-2q-56 -66 -170 -96.5t-217 -30.5q-153 0 -225.5 37t-72.5 126q0 82 87 123.5t282 41.5h236q-1 31 -18.5 52t-51 31t-70 13.5t-88.5 3.5q-82 0 -173 -23t-141 -63l-2 6l-38 116
q43 37 147 65.5t207 28.5q246 0 342 -112q111 114 321 114q204 0 305 -91t101 -244h-629q0 -59 63.5 -83t178.5 -24zM1092 409q-98 0 -161.5 -28t-63.5 -80h452q0 52 -64 80t-163 28zM645 209v9h-263q-95 0 -133 -14.5t-38 -48.5q0 -31 37.5 -43.5t134.5 -12.5q116 0 189 30
t73 80z" />
    <glyph glyph-name="ccedilla" unicode="&#xe7;" horiz-adv-x="835" 
d="M447 100q90 0 173 17t116 44l58 -122q-124 -69 -347 -69q-30 0 -44 1l-87 -157h-184l-2 4l124 182q-99 34 -156.5 101t-57.5 155q0 128 114.5 207t292.5 79q199 0 348 -84l-58 -121q-36 29 -120.5 52t-169.5 23q-104 0 -168 -43t-64 -113t64 -113t168 -43z" />
    <glyph glyph-name="egrave" unicode="&#xe8;" horiz-adv-x="884" 
d="M604 650h-156l-171 210l2 3h205l122 -210zM844 207h-629q0 -59 63.5 -83t178.5 -24q88 0 166.5 14t112.5 37l48 -112q-110 -63 -327 -63q-189 0 -303 72t-114 192q0 131 108 216.5t290 85.5q204 0 305 -91t101 -244zM217 301h452q0 52 -64 80t-163 28q-98 0 -161.5 -28
t-63.5 -80z" />
    <glyph glyph-name="eacute" unicode="&#xe9;" horiz-adv-x="884" 
d="M277 653l122 210h205l2 -3l-171 -210h-156zM844 207h-629q0 -59 63.5 -83t178.5 -24q88 0 166.5 14t112.5 37l48 -112q-110 -63 -327 -63q-189 0 -303 72t-114 192q0 131 108 216.5t290 85.5q204 0 305 -91t101 -244zM217 301h452q0 52 -64 80t-163 28q-98 0 -161.5 -28
t-63.5 -80z" />
    <glyph glyph-name="ecircumflex" unicode="&#xea;" horiz-adv-x="884" 
d="M443 780l-148 -130h-189l-2 3l224 210h228l224 -209l-2 -4h-187zM844 207h-629q0 -59 63.5 -83t178.5 -24q88 0 166.5 14t112.5 37l48 -112q-110 -63 -327 -63q-189 0 -303 72t-114 192q0 131 108 216.5t290 85.5q204 0 305 -91t101 -244zM217 301h452q0 52 -64 80
t-163 28q-98 0 -161.5 -28t-63.5 -80z" />
    <glyph glyph-name="edieresis" unicode="&#xeb;" horiz-adv-x="884" 
d="M318 650q41 0 65 21t24 61t-24 61t-65 21t-65 -21t-24 -61t24 -61t65 -21zM566 650q41 0 65 21t24 61t-24 61t-65 21t-65 -21t-24 -61t24 -61t65 -21zM844 207h-629q0 -59 63.5 -83t178.5 -24q88 0 166.5 14t112.5 37l48 -112q-110 -63 -327 -63q-189 0 -303 72t-114 192
q0 131 108 216.5t290 85.5q204 0 305 -91t101 -244zM217 301h452q0 52 -64 80t-163 28q-98 0 -161.5 -28t-63.5 -80z" />
    <glyph glyph-name="igrave" unicode="&#xec;" horiz-adv-x="338" 
d="M231 650h-156l-171 210l2 3h205l122 -210zM80 500h168v-500h-168v500z" />
    <glyph glyph-name="iacute" unicode="&#xed;" horiz-adv-x="338" 
d="M94 653l122 210h205l2 -3l-171 -210h-156zM80 500h168v-500h-168v500z" />
    <glyph glyph-name="ntilde" unicode="&#xf1;" horiz-adv-x="938" 
d="M287 655h-134q-5 83 45 135t136 52q61 0 150.5 -37t113.5 -37q25 0 38.5 17.5t11.5 47.5l3 2h134q2 -84 -44 -134.5t-126 -50.5q-58 0 -150.5 37t-116.5 37q-26 0 -42.5 -18.5t-15.5 -48.5zM531 539q82 0 142 -18t96 -47.5t57.5 -76t29 -94.5t7.5 -112v-191h-168v191
q0 112 -46.5 165t-143.5 53q-145 0 -257 -97v-312h-168v500h168v-79q124 118 283 118z" />
    <glyph glyph-name="ograve" unicode="&#xf2;" horiz-adv-x="896" 
d="M610 650h-156l-171 210l2 3h205l122 -210zM448 -30q-181 0 -294.5 77t-113.5 202q0 132 113 212.5t295 80.5q178 0 293 -81t115 -212q0 -125 -115 -202t-293 -77zM448 89q105 0 169 44t64 116q0 73 -64 118t-169 45t-169 -45t-64 -118q0 -72 64 -116t169 -44z" />
    <glyph glyph-name="oacute" unicode="&#xf3;" horiz-adv-x="896" 
d="M283 653l122 210h205l2 -3l-171 -210h-156zM448 -30q-181 0 -294.5 77t-113.5 202q0 132 113 212.5t295 80.5q178 0 293 -81t115 -212q0 -125 -115 -202t-293 -77zM448 89q105 0 169 44t64 116q0 73 -64 118t-169 45t-169 -45t-64 -118q0 -72 64 -116t169 -44z" />
    <glyph glyph-name="ocircumflex" unicode="&#xf4;" horiz-adv-x="896" 
d="M449 780l-148 -130h-189l-2 3l224 210h228l224 -209l-2 -4h-187zM448 -30q-181 0 -294.5 77t-113.5 202q0 132 113 212.5t295 80.5q178 0 293 -81t115 -212q0 -125 -115 -202t-293 -77zM448 89q105 0 169 44t64 116q0 73 -64 118t-169 45t-169 -45t-64 -118
q0 -72 64 -116t169 -44z" />
    <glyph glyph-name="otilde" unicode="&#xf5;" horiz-adv-x="896" 
d="M594 650q-58 0 -150.5 37t-116.5 37q-26 0 -42.5 -18.5t-15.5 -48.5l-3 -2h-134q-5 83 45 135t136 52q61 0 150.5 -37t113.5 -37q25 0 38.5 17.5t11.5 47.5l3 2h134q2 -84 -44 -134.5t-126 -50.5zM448 -30q-181 0 -294.5 77t-113.5 202q0 132 113 212.5t295 80.5
q178 0 293 -81t115 -212q0 -125 -115 -202t-293 -77zM448 89q105 0 169 44t64 116q0 73 -64 118t-169 45t-169 -45t-64 -118q0 -72 64 -116t169 -44z" />
    <glyph glyph-name="odieresis" unicode="&#xf6;" horiz-adv-x="896" 
d="M324 650q41 0 65 21t24 61t-24 61t-65 21t-65 -21t-24 -61t24 -61t65 -21zM572 650q41 0 65 21t24 61t-24 61t-65 21t-65 -21t-24 -61t24 -61t65 -21zM448 -30q-181 0 -294.5 77t-113.5 202q0 132 113 212.5t295 80.5q178 0 293 -81t115 -212q0 -125 -115 -202t-293 -77z
M448 89q105 0 169 44t64 116q0 73 -64 118t-169 45t-169 -45t-64 -118q0 -72 64 -116t169 -44z" />
    <glyph glyph-name="oslash" unicode="&#xf8;" horiz-adv-x="896" 
d="M448 542q178 0 293 -81t115 -212q0 -125 -115 -202t-293 -77q-181 0 -294.5 77t-113.5 202q0 132 113 212.5t295 80.5zM448 412q-105 0 -169 -45t-64 -118q0 -78 73 -122l182 284q-7 1 -22 1zM448 89q105 0 169 44t64 116q0 83 -80 128l-183 -287q10 -1 30 -1z" />
    <glyph glyph-name="ugrave" unicode="&#xf9;" horiz-adv-x="898" 
d="M611 650h-156l-171 210l2 3h205l122 -210zM818 500v-500h-168v68q-41 -47 -99.5 -72.5t-153.5 -25.5q-82 0 -141 17t-93.5 45t-54.5 73.5t-26.5 92t-6.5 111.5v191h168v-191q0 -113 42 -165.5t138 -52.5q149 0 227 85v324h168z" />
    <glyph glyph-name="uacute" unicode="&#xfa;" horiz-adv-x="898" 
d="M284 653l122 210h205l2 -3l-171 -210h-156zM818 500v-500h-168v68q-41 -47 -99.5 -72.5t-153.5 -25.5q-82 0 -141 17t-93.5 45t-54.5 73.5t-26.5 92t-6.5 111.5v191h168v-191q0 -113 42 -165.5t138 -52.5q149 0 227 85v324h168z" />
    <glyph glyph-name="ucircumflex" unicode="&#xfb;" horiz-adv-x="898" 
d="M450 780l-148 -130h-189l-2 3l224 210h228l224 -209l-2 -4h-187zM818 500v-500h-168v68q-41 -47 -99.5 -72.5t-153.5 -25.5q-82 0 -141 17t-93.5 45t-54.5 73.5t-26.5 92t-6.5 111.5v191h168v-191q0 -113 42 -165.5t138 -52.5q149 0 227 85v324h168z" />
    <glyph glyph-name="udieresis" unicode="&#xfc;" horiz-adv-x="898" 
d="M325 650q41 0 65 21t24 61t-24 61t-65 21t-65 -21t-24 -61t24 -61t65 -21zM573 650q41 0 65 21t24 61t-24 61t-65 21t-65 -21t-24 -61t24 -61t65 -21zM818 500v-500h-168v68q-41 -47 -99.5 -72.5t-153.5 -25.5q-82 0 -141 17t-93.5 45t-54.5 73.5t-26.5 92t-6.5 111.5
v191h168v-191q0 -113 42 -165.5t138 -52.5q149 0 227 85v324h168z" />
    <glyph glyph-name="yacute" unicode="&#xfd;" horiz-adv-x="845" 
d="M264 653l122 210h205l2 -3l-171 -210h-156zM148 -58l-41 -129q70 -25 135 -22t127.5 44t109.5 116l338 544l3 5h-180l-3 -5l-216 -354l-216 359h-180l3 -5l302 -494q0 -49 -57 -69.5t-125 10.5z" />
    <glyph glyph-name="ydieresis" unicode="&#xff;" horiz-adv-x="845" 
d="M305 650q41 0 65 21t24 61t-24 61t-65 21t-65 -21t-24 -61t24 -61t65 -21zM553 650q41 0 65 21t24 61t-24 61t-65 21t-65 -21t-24 -61t24 -61t65 -21zM148 -58l-41 -129q70 -25 135 -22t127.5 44t109.5 116l338 544l3 5h-180l-3 -5l-216 -354l-216 359h-180l3 -5
l302 -494q0 -49 -57 -69.5t-125 10.5z" />
    <glyph glyph-name="Eogonek" unicode="&#x118;" horiz-adv-x="1059" 
d="M979 140v-140h-569q-178 -58 -178 -117q0 -38 77 -38q52 0 97 15l4 -1v-99q-42 -12 -116 -12q-214 0 -214 107q0 45 38.5 78.5t123.5 66.5h-162v734h891v-140h-717v-149h548v-140h-548v-165h725z" />
    <glyph glyph-name="eogonek" unicode="&#x119;" horiz-adv-x="884" 
d="M457 100q88 0 166.5 14t112.5 37l48 -112q-110 -63 -327 -63q-39 0 -75 3q-120 -47 -120 -96q0 -38 77 -38q52 0 97 15l4 -1v-99q-42 -12 -116 -12q-214 0 -214 107q0 45 37.5 78t121.5 66q-108 30 -168.5 92.5t-60.5 148.5q0 131 108 216.5t290 85.5q204 0 305 -91
t101 -244h-629q0 -59 63.5 -83t178.5 -24zM442 409q-98 0 -161.5 -28t-63.5 -80h452q0 52 -64 80t-163 28z" />
    <glyph glyph-name="dotlessi" unicode="&#x131;" horiz-adv-x="328" 
d="M80 500h168v-500h-168v500z" />
    <glyph glyph-name="OE" unicode="&#x152;" horiz-adv-x="1858" 
d="M1778 150v-150h-899v54q-134 -84 -330 -84q-226 0 -367.5 108.5t-141.5 281.5t142 282t367 109q195 0 330 -85v68h891v-150h-717v-135h548v-128h-548v-171h725zM549 109q147 0 233.5 68.5t86.5 182.5q0 115 -87.5 188t-232.5 73q-147 0 -235 -73t-88 -188
q0 -114 87.5 -182.5t235.5 -68.5z" />
    <glyph glyph-name="oe" unicode="&#x153;" horiz-adv-x="1526" 
d="M1099 100q88 0 166.5 14t112.5 37l48 -112q-110 -63 -327 -63q-215 0 -331 92q-115 -98 -320 -98q-181 0 -294.5 77t-113.5 202q0 132 113 212.5t295 80.5q205 0 321 -103q113 103 311 103q204 0 305 -91t101 -244h-629q0 -59 63.5 -83t178.5 -24zM448 89q105 0 169 44
t64 116q0 73 -64 118t-169 45t-169 -45t-64 -118q0 -72 64 -116t169 -44zM1084 409q-98 0 -161.5 -28t-63.5 -80h452q0 52 -64 80t-163 28z" />
    <glyph glyph-name="Ydieresis" unicode="&#x178;" horiz-adv-x="1096" 
d="M424 800q-41 0 -65 21t-24 61t24 61t65 21t65 -21t24 -61t-24 -61t-65 -21zM672 800q-41 0 -65 21t-24 61t24 61t65 21t65 -21t24 -61t-24 -61t-65 -21zM853 734h203l-421 -501v-233h-171v233l-424 501h204l306 -361z" />
    <glyph glyph-name="circumflex" unicode="&#x2c6;" horiz-adv-x="776" 
d="M389 917l-148 -130h-189l-2 3l224 210h228l224 -209l-2 -4h-187z" />
    <glyph glyph-name="caron" unicode="&#x2c7;" horiz-adv-x="787" 
d="M305 789l-255 210l2 3h212l131 -120l130 120h210l2 -3l-253 -210h-179z" />
    <glyph glyph-name="breve" unicode="&#x2d8;" horiz-adv-x="700" 
d="M350 792q-143 0 -221.5 59t-78.5 165h147l3 -3q1 -113 150 -113t150 113l3 3h147q0 -106 -78.5 -165t-221.5 -59z" />
    <glyph glyph-name="dotaccent" unicode="&#x2d9;" horiz-adv-x="278" 
d="M139 586q41 0 65 21t24 61t-24 61t-65 21t-65 -21t-24 -61t24 -61t65 -21z" />
    <glyph glyph-name="ring" unicode="&#x2da;" horiz-adv-x="518" 
d="M259 738q-99 0 -154 35.5t-55 96.5t54.5 95.5t154.5 34.5t154.5 -34.5t54.5 -95.5t-55 -96.5t-154 -35.5zM259 818q40 0 63.5 15t23.5 37q0 21 -23.5 35.5t-63.5 14.5t-63.5 -14.5t-23.5 -35.5q0 -22 23.5 -37t63.5 -15z" />
    <glyph glyph-name="ogonek" unicode="&#x2db;" horiz-adv-x="430" 
d="M264 -252q-214 0 -214 107q0 45 38.5 78.5t123.5 66.5h168q-178 -58 -178 -117q0 -38 77 -38q52 0 97 15l4 -1v-99q-42 -12 -116 -12z" />
    <glyph glyph-name="tilde" unicode="&#x2dc;" horiz-adv-x="732" 
d="M512 789q-58 0 -150.5 37t-116.5 37q-26 0 -42.5 -18.5t-15.5 -48.5l-3 -2h-134q-5 83 45 135t136 52q61 0 150.5 -37t113.5 -37q25 0 38.5 17.5t11.5 47.5l3 2h134q2 -84 -44 -134.5t-126 -50.5z" />
    <glyph glyph-name="hungarumlaut" unicode="&#x2dd;" horiz-adv-x="716" 
d="M50 804l109 196h201l2 -3l-152 -196h-158zM332 804l132 196h200l2 -3l-167 -196h-165z" />
    <glyph glyph-name="gravecomb" unicode="&#x300;" horiz-adv-x="0" 
d="M-52 650h-156l-171 210l2 3h205l122 -210z" />
    <glyph glyph-name="acutecomb" unicode="&#x301;" horiz-adv-x="0" 
d="M-379 653l122 210h205l2 -3l-171 -210h-156z" />
    <glyph glyph-name="uni0302" unicode="&#x302;" horiz-adv-x="0" 
d="M-387 780l-148 -130h-189l-2 3l224 210h228l224 -209l-2 -4h-187z" />
    <glyph glyph-name="tildecomb" unicode="&#x303;" horiz-adv-x="0" 
d="M-220 650q-58 0 -150.5 37t-116.5 37q-26 0 -42.5 -18.5t-15.5 -48.5l-3 -2h-134q-5 83 45 135t136 52q61 0 150.5 -37t113.5 -37q25 0 38.5 17.5t11.5 47.5l3 2h134q2 -84 -44 -134.5t-126 -50.5z" />
    <glyph glyph-name="uni0308" unicode="&#x308;" horiz-adv-x="0" 
d="M-387 650q41 0 65 21t24 61t-24 61t-65 21t-65 -21t-24 -61t24 -61t65 -21zM-139 650q41 0 65 21t24 61t-24 61t-65 21t-65 -21t-24 -61t24 -61t65 -21z" />
    <glyph glyph-name="uni030A" unicode="&#x30a;" horiz-adv-x="0" 
d="M-259 650q-99 0 -154 35.5t-55 96.5t54.5 95.5t154.5 34.5t154.5 -34.5t54.5 -95.5t-55 -96.5t-154 -35.5zM-259 730q40 0 63.5 15t23.5 37q0 21 -23.5 35.5t-63.5 14.5t-63.5 -14.5t-23.5 -35.5q0 -22 23.5 -37t63.5 -15z" />
    <glyph glyph-name="uni0327" unicode="&#x327;" horiz-adv-x="0" 
d="M-339 -182l124 182h165l-103 -186h-184z" />
    <glyph glyph-name="endash" unicode="&#x2013;" horiz-adv-x="950" 
d="M50 360h850v-135h-850v135z" />
    <glyph glyph-name="emdash" unicode="&#x2014;" horiz-adv-x="1700" 
d="M50 360h1600v-135h-1600v135z" />
    <glyph glyph-name="quoteleft" unicode="&#x2018;" horiz-adv-x="300" 
d="M50 380v145l133 209h67l-57 -177h56v-177h-199z" />
    <glyph glyph-name="quoteright" unicode="&#x2019;" horiz-adv-x="300" 
d="M250 734v-145l-133 -209h-67l57 177h-56v177h199z" />
    <glyph glyph-name="quotesinglbase" unicode="&#x201a;" horiz-adv-x="600" 
d="M50 -177l57 177h-56v177h199v-145l-133 -209h-67z" />
    <glyph glyph-name="quotedblleft" unicode="&#x201c;" horiz-adv-x="569" 
d="M50 368v145l133 209h67l-57 -177h56v-177h-199zM319 368v145l133 209h67l-57 -177h56v-177h-199z" />
    <glyph glyph-name="quotedblright" unicode="&#x201d;" horiz-adv-x="569" 
d="M50 368l57 177h-56v177h199v-145l-133 -209h-67zM319 368l57 177h-56v177h199v-145l-133 -209h-67z" />
    <glyph glyph-name="quotedblbase" unicode="&#x201e;" horiz-adv-x="600" 
d="M51 177h199v-145l-133 -209h-67l57 177h-56v177z" />
    <glyph glyph-name="bullet" unicode="&#x2022;" horiz-adv-x="367" 
d="M184 127q62 0 97.5 31.5t35.5 91.5t-35.5 91.5t-97.5 31.5t-98 -31.5t-36 -91.5t36 -91.5t98 -31.5z" />
    <glyph glyph-name="ellipsis" unicode="&#x2026;" horiz-adv-x="651" 
d="M118 -10q32 0 50.5 16t18.5 47t-18.5 47t-50.5 16t-50 -16t-18 -47t18 -47t50 -16zM325 -10q32 0 50.5 16t18.5 47t-18.5 47t-50.5 16t-50 -16t-18 -47t18 -47t50 -16zM532 -10q32 0 50.5 16t18.5 47t-18.5 47t-50.5 16t-50 -16t-18 -47t18 -47t50 -16z" />
    <glyph glyph-name="guilsinglleft" unicode="&#x2039;" horiz-adv-x="434" 
d="M50 226v120l334 180v-160l-157 -80l157 -80v-160z" />
    <glyph glyph-name="guilsinglright" unicode="&#x203a;" horiz-adv-x="434" 
d="M50 206l157 80l-157 80v160l334 -180v-120l-334 -180v160z" />
    <glyph glyph-name="Euro" unicode="&#x20ac;" horiz-adv-x="1243" 
d="M1192 86q-191 -98 -418 -98q-246 0 -392.5 85.5t-168.5 240.5h-161l77 124h88q29 145 172 224.5t374 79.5q240 0 430 -98l-6 -163q-203 111 -406 111q-150 0 -243.5 -40t-123.5 -114h566l-73 -124h-501q21 -84 116.5 -130t258.5 -46q200 0 406 111z" />
    <glyph glyph-name="arrowleft" unicode="&#x2190;" horiz-adv-x="1443" 
d="M25 286l285 286h192l3 -4l-212 -209h1100v-144h-1102l214 -211l-3 -4h-192z" />
    <glyph glyph-name="arrowup" unicode="&#x2191;" horiz-adv-x="820" 
d="M495 454v-454h-170v454l-271 -269l-4 3v194l360 360l360 -360v-194l-4 -3z" />
    <glyph glyph-name="arrowright" unicode="&#x2192;" horiz-adv-x="1443" 
d="M941 0l-3 4l214 211h-1102v144h1100l-212 209l3 4h192l285 -286l-285 -286h-192z" />
    <glyph glyph-name="arrowdown" unicode="&#x2193;" horiz-adv-x="820" 
d="M50 340v194l4 3l271 -269v454h170v-454l271 269l4 -3v-194l-360 -360z" />
    <glyph glyph-name="arrowboth" unicode="&#x2194;" horiz-adv-x="1558" 
d="M502 1h-192l-285 286l285 286h192l3 -4l-212 -209h972l-212 209l3 4h192l285 -286l-285 -286h-192l-3 4l214 211h-976l214 -211z" />
    <glyph glyph-name="arrowupdn" unicode="&#x2195;" horiz-adv-x="820" 
d="M50 163v153l5 2l270 -140v366l-270 -140l-5 2v153l360 183l360 -183v-153l-5 -2l-270 140v-366l270 140l5 -2v-153l-360 -183z" />
    <glyph glyph-name="uni2196" unicode="&#x2196;" horiz-adv-x="774" 
d="M201 328v-269h-151v514h523v-142h-252l428 -427l-3 -4h-217z" />
    <glyph glyph-name="uni2197" unicode="&#x2197;" horiz-adv-x="774" 
d="M573 328l-328 -328h-217l-3 4l428 427h-252v142h523v-514h-151v269z" />
    <glyph glyph-name="uni2198" unicode="&#x2198;" horiz-adv-x="759" 
d="M195 0v140h259l-429 429l3 4h217l314 -315v251h150v-509h-514z" />
    <glyph glyph-name="uni2199" unicode="&#x2199;" horiz-adv-x="759" 
d="M50 509h150v-251l314 315h217l3 -4l-429 -429h259v-140h-514v509z" />
    <glyph glyph-name="minus" unicode="&#x2212;" horiz-adv-x="920" 
d="M50 439h820v-128h-820v128z" />
    <glyph glyph-name="arrowup.case" horiz-adv-x="820" 
d="M495 454v-454h-170v454l-271 -269l-4 3v194l360 360l360 -360v-194l-4 -3z" />
    <glyph glyph-name="uni2197.case" horiz-adv-x="774" 
d="M573 328l-328 -328h-217l-3 4l428 427h-252v142h523v-514h-151v269z" />
    <glyph glyph-name="arrowright.case" horiz-adv-x="1443" 
d="M941 0l-3 4l214 211h-1102v144h1100l-212 209l3 4h192l285 -286l-285 -286h-192z" />
    <glyph glyph-name="uni2198.case" horiz-adv-x="759" 
d="M195 0v140h259l-429 429l3 4h217l314 -315v251h150v-509h-514z" />
    <glyph glyph-name="arrowdown.case" horiz-adv-x="820" 
d="M50 340v194l4 3l271 -269v454h170v-454l271 269l4 -3v-194l-360 -360z" />
    <glyph glyph-name="uni2199.case" horiz-adv-x="759" 
d="M50 509h150v-251l314 315h217l3 -4l-429 -429h259v-140h-514v509z" />
    <glyph glyph-name="arrowleft.case" horiz-adv-x="1443" 
d="M25 286l285 286h192l3 -4l-212 -209h1100v-144h-1102l214 -211l-3 -4h-192z" />
    <glyph glyph-name="uni2196.case" horiz-adv-x="774" 
d="M201 328v-269h-151v514h523v-142h-252l428 -427l-3 -4h-217z" />
    <glyph glyph-name="arrowboth.case" horiz-adv-x="1558" 
d="M502 1h-192l-285 286l285 286h192l3 -4l-212 -209h972l-212 209l3 4h192l285 -286l-285 -286h-192l-3 4l214 211h-976l214 -211z" />
    <glyph glyph-name="arrowupdn.case" horiz-adv-x="820" 
d="M50 163v153l5 2l270 -140v366l-270 -140l-5 2v153l360 183l360 -183v-153l-5 -2l-270 140v-366l270 140l5 -2v-153l-360 -183z" />
    </font>
</defs>
</svg>
