<?xml version="1.0" standalone="no"?>
<!DOCTYPE svg PUBLIC "-//W3C//DTD SVG 1.1//EN" "http://www.w3.org/Graphics/SVG/1.1/DTD/svg11.dtd" >
<svg xmlns="http://www.w3.org/2000/svg" xmlns:xlink="http://www.w3.org/1999/xlink" version="1.1">
<metadata>
Created by FontForge 20170731 at Tue Mar 19 20:09:17 2019
 By Aleksey,,,
copyright missing
</metadata>
<defs>
<font id="Messapia-Regular" horiz-adv-x="1095" >
  <font-face 
    font-family="Messapia"
    font-weight="400"
    font-stretch="semi-expanded"
    units-per-em="1000"
    panose-1="0 0 5 5 0 0 0 0 0 0"
    ascent="800"
    descent="-200"
    x-height="490"
    cap-height="700"
    bbox="-373 -250 1553 904"
    underline-thickness="50"
    underline-position="-200"
    unicode-range="U+0020-2212"
  />
<missing-glyph horiz-adv-x="450" 
d="M369 700v-900h-285v900h285zM300 640h-149v-30h59v-33h-60v-30h150v30h-60v33h60v30zM240 524h-90v-94h150v31h-60v63zM210 493v-32h-30v32h30zM300 406h-150v-30h60v-33h-60v-30h90v63h60v30zM300 352h-30v-60h-120v-30h150v90zM300 242h-90v-50h30v20h30v-42h-90v72
h-30v-102h150v102zM300 86h-150v-102h150v102zM270 57v-43h-90v43h90zM300 -36h-150v-30h63l-63 -42v-30h150v30h-92l63 42h29v30z" />
    <glyph glyph-name=".notdef" horiz-adv-x="450" 
d="M369 700v-900h-285v900h285zM300 640h-149v-30h59v-33h-60v-30h150v30h-60v33h60v30zM240 524h-90v-94h150v31h-60v63zM210 493v-32h-30v32h30zM300 406h-150v-30h60v-33h-60v-30h90v63h60v30zM300 352h-30v-60h-120v-30h150v90zM300 242h-90v-50h30v20h30v-42h-90v72
h-30v-102h150v102zM300 86h-150v-102h150v102zM270 57v-43h-90v43h90zM300 -36h-150v-30h63l-63 -42v-30h150v30h-92l63 42h29v30z" />
    <glyph glyph-name=".null" horiz-adv-x="0" 
 />
    <glyph glyph-name="nonmarkingreturn" horiz-adv-x="333" 
 />
    <glyph glyph-name="space" unicode=" " horiz-adv-x="300" 
 />
    <glyph glyph-name="exclam" unicode="!" horiz-adv-x="204" 
d="M91 206l-26 434q0 23 10 35.5t27 12.5q38 0 38 -48l-27 -434h-22zM102 -8q-21 0 -36.5 15t-15.5 37t15 37t37 15t37 -15t15 -37q0 -23 -15.5 -37.5t-36.5 -14.5z" />
    <glyph glyph-name="quotedbl" unicode="&#x22;" horiz-adv-x="314" 
d="M81 463q-1 73 -16 128q-15 49 -15 58q0 20 11 31t28 11t30 -11q11 -11 11 -31q0 -7 -14 -58q-16 -53 -17 -128h-18zM215 463q-1 73 -16 128q-15 50 -15 58q0 20 11 31t28 11t30 -11q11 -11 11 -31q0 -7 -14 -58q-16 -53 -17 -128h-18z" />
    <glyph glyph-name="numbersign" unicode="#" horiz-adv-x="626" 
d="M297 12l56 194h-156l-58 -200l-24 6l56 194h-121v25h128l62 216h-119v25h126l58 200l24 -6l-56 -194h156l58 200l24 -6l-56 -194h121v-25h-128l-62 -216h119v-25h-126l-58 -200zM422 447h-156l-62 -216h156z" />
    <glyph glyph-name="dollar" unicode="$" horiz-adv-x="657" 
d="M339 362q11 -3 43 -12t46.5 -13t43 -14.5t43.5 -19t35.5 -23.5t31 -30.5t18 -37.5t7.5 -48q0 -47 -16.5 -78.5t-47 -47t-62 -21t-73.5 -5.5q-37 0 -69 7v-90h-21v95q-85 21 -142 67l-49 -64l-77 232l4 8q46 -92 114 -149.5t150 -75.5v240q-15 4 -34 11q-99 36 -153.5 79
t-54.5 110q0 58 46 96.5t121 38.5q32 0 75 -12v95h21v-102q52 -20 122 -60l49 64l94 -230l-3 -6q-52 84 -121.5 136t-140.5 75v-215zM315 370h1l2 -1v215q-40 11 -75 11q-47 2 -77.5 -22.5t-30.5 -70.5q0 -40 38 -68.5t142 -63.5zM397 33q70 0 110.5 27.5t40.5 81.5
q0 19 -5 34t-18.5 27t-24 20t-35 16.5t-37.5 12.5t-44.5 12t-44.5 12v-238q32 -5 58 -5z" />
    <glyph glyph-name="percent" unicode="%" horiz-adv-x="699" 
d="M146 -4l357 633q-55 -43 -121 -43q-41 0 -75 17q16 -38 16 -86q0 -73 -34 -122t-98 -49q-65 0 -102 49q-39 48 -39 122q0 73 39 122q37 49 102 49q49 0 83 -33q47 -46 108 -46q36 0 83 24q44 21 74 62l20 -12l-392 -699zM192 369q50 0 79 42q27 42 27 106q0 63 -27 106
q-29 42 -79 42q-33 0 -51 -21q-19 -21 -24 -50q-6 -30 -6 -77q0 -71 17 -110q17 -38 64 -38zM518 -8q-64 0 -103 49q-39 48 -39 122q0 73 39 122t103 49q63 0 97 -49t34 -122t-34 -122t-97 -49zM518 15q50 0 79 42q27 42 27 106q0 62 -27 106q-29 42 -79 42q-33 0 -51 -21
q-19 -21 -24 -50q-6 -30 -6 -77q0 -71 17 -110q17 -38 64 -38z" />
    <glyph glyph-name="ampersand" unicode="&#x26;" horiz-adv-x="861" 
d="M259 -10q-44 0 -89.5 15.5t-76.5 40.5t-49.5 65t-18.5 80q0 37 15.5 75t41.5 63t69.5 47t83.5 32q-43 22 -71 57.5t-28 73.5q0 69 62.5 110.5t141.5 41.5q58 0 114 -24t90 -63l-28 -77q-31 66 -80 107.5t-98 42.5q-137 0 -137 -117q0 -43 32.5 -70t92.5 -47
q100 -32 152 -73q48 -37 72 -123l51 64q35 44 85 71t97 27l25 -70q-52 29 -107 17q-26 -5 -55 -26.5t-52 -51.5l-33 -45l9 -49q22 -93 54 -128q34 -34 79 -34q28 0 56.5 16.5t48.5 43.5l18 -9q-23 -36 -64.5 -58t-86.5 -22q-60 0 -109 43t-68 113q-60 -91 -106 -121
q-58 -38 -133 -38zM260 5q36 0 72 12.5t57 28.5q47 35 99 118q-15 67 -20 81q-21 49 -51 76q-28 24 -120 59l-46 18q-63 -14 -100 -72t-37 -137t40.5 -131.5t105.5 -52.5z" />
    <glyph glyph-name="quotesingle" unicode="'" horiz-adv-x="180" 
d="M81 463q-1 73 -16 128q-15 49 -15 58q0 20 11 31t28 11t30 -11q11 -11 11 -31q0 -7 -14 -58q-16 -53 -17 -128h-18z" />
    <glyph glyph-name="parenleft" unicode="(" horiz-adv-x="328" 
d="M117 276q0 -318 161 -437l-11 -15q-97 67 -157 195q-60 126 -60 257q0 130 60 258q61 127 157 194l11 -15q-161 -119 -161 -437z" />
    <glyph glyph-name="parenright" unicode=")" horiz-adv-x="328" 
d="M211 276q0 318 -161 437l11 15q96 -67 157 -194q60 -128 60 -258q0 -131 -60 -257q-60 -128 -157 -195l-11 15q161 119 161 437z" />
    <glyph glyph-name="asterisk" unicode="*" horiz-adv-x="388" 
d="M194 400q-12 0 -20 9q-5 5 -7.5 11t-1 18.5t2.5 18t6 24.5q9 36 12 69q-30 -20 -52 -44q-37 -39 -56 -39q-12 0 -20 9q-8 10 -8 20q0 12 9 20.5t19.5 12t35.5 9.5q32 7 64 24q-12 6 -61.5 23.5t-52.5 18.5q-12 7 -14 20.5t8 24.5q16 17 36 4q5 -2 43.5 -37t48.5 -42
q-1 11 -11 63.5t-10 57.5q0 12 8.5 20.5t20.5 8.5t20.5 -8.5t8.5 -20.5q0 -5 -10 -57.5t-11 -63.5q17 12 49.5 43t42.5 36q21 14 36 -4q10 -10 8.5 -24t-14.5 -21q-15 -8 -52 -18.5t-62 -23.5q25 -13 60.5 -22.5t51.5 -17.5t16 -26q0 -10 -8 -20q-8 -9 -20 -9q-11 0 -29 15
t-41.5 37t-37.5 31q3 -33 12 -69q8 -33 9 -45t-8 -27q-9 -9 -21 -9z" />
    <glyph glyph-name="plus" unicode="+" horiz-adv-x="540" 
d="M283 310v-207h-26v207h-207v25h207v208h26v-208h207v-25h-207z" />
    <glyph glyph-name="comma" unicode="," horiz-adv-x="213" 
d="M100 -5q-22 0 -36 15q-14 14 -14 35t15 37q15 15 38 15q25 0 43 -20q17 -20 17 -56q0 -49 -28 -84q-28 -34 -70 -48l-6 17q79 31 79 105q-12 -16 -38 -16z" />
    <glyph glyph-name="hyphen" unicode="-" horiz-adv-x="273" 
d="M50 252v59h173v-59h-173z" />
    <glyph glyph-name="period" unicode="." horiz-adv-x="204" 
d="M102 -8q-21 0 -36.5 15t-15.5 37t15 37t37 15q21 0 36.5 -15t15.5 -37t-15 -37t-37 -15z" />
    <glyph glyph-name="slash" unicode="/" horiz-adv-x="426" 
d="M50 -168l302 897l24 -9l-302 -897z" />
    <glyph glyph-name="zero" unicode="0" horiz-adv-x="800" 
d="M400 -18q-146 -1 -248 107.5t-102 255.5q0 149 101.5 259t247.5 110q145 0 248 -111t103 -258q0 -148 -102 -255t-248 -108zM400 8q124 0 182 82t58 255q0 176 -58.5 259.5t-182.5 83.5t-182.5 -83.5t-58.5 -259.5q0 -173 59 -255t183 -82z" />
    <glyph glyph-name="one" unicode="1" horiz-adv-x="504" 
d="M138 0v4l118 63l5 373q0 24 -0.5 37.5t-3 27t-7 18.5t-12 10t-19 3.5t-27 -3.5t-38 -8t-49.5 -13q-29 -8 -45 -12l-10 11q96 29 152 68t104 121h25l5 -633l118 -63v-4h-316z" />
    <glyph glyph-name="two" unicode="2" horiz-adv-x="784" 
d="M381 714q-138 0 -222 -52.5t-84 -137.5l86 -74h4q0 111 56.5 176t159.5 65q92 0 148 -48t56 -130q0 -86 -60.5 -154.5t-171.5 -101.5q-166 -49 -234.5 -104t-68.5 -153h505l25 -34l174 234h-4l-193 -120l-466 -2q3 33 67.5 76t174.5 71q158 40 263.5 117t105.5 171
q0 96 -86.5 148.5t-234.5 52.5z" />
    <glyph glyph-name="three" unicode="3" horiz-adv-x="761" 
d="M360 -6q-132 0 -211.5 40.5t-97.5 89.5l81 79h4q0 -84 56 -134.5t168 -50.5q103 0 168.5 47.5t65.5 133.5q0 82 -44.5 140t-114.5 58q-65 0 -195 -53l-16 20q292 93 292 211q0 56 -43.5 88.5t-124.5 32.5q-52 0 -86 -7.5t-65 -29.5t-46 -68.5t-15 -119.5h-4l-82 73
q16 74 94.5 122.5t203.5 48.5q139 0 212 -36.5t73 -103.5q0 -106 -206 -161q124 9 204 -52t80 -153q0 -104 -96.5 -159.5t-254.5 -55.5z" />
    <glyph glyph-name="four" unicode="4" horiz-adv-x="877" 
d="M564 500l81 50h4v-341h61l133 135l4 -4l-38 -154h-160v-109l126 -72v-5h-337v5l126 72v109h-514v21q82 36 149.5 78t123.5 93t88 106t42 118t-15 129v4l161 -85v-4q-100 -151 -241.5 -272.5t-256.5 -164.5h463v291z" />
    <glyph glyph-name="five" unicode="5" horiz-adv-x="749" 
d="M355 -10q-101 0 -195 45t-110 89l81 79h4q0 -115 85 -161q49 -28 135 -28q125 0 191.5 54.5t66.5 162.5q0 95 -52 145t-169 50q-155 0 -280 -97l-34 8l84 344h424l129 40h4l-129 -158h-4l-14 33l-401 -1l-59 -232q53 36 132.5 61.5t147.5 25.5q160 0 248.5 -56.5
t88.5 -157.5q0 -111 -103.5 -178.5t-270.5 -67.5z" />
    <glyph glyph-name="six" unicode="6" horiz-adv-x="760" 
d="M356 -18q-138 0 -222 74.5t-84 196.5q0 112 38.5 186t122.5 134q162 119 395 150v-23q-184 -33 -292 -105q-111 -73 -140 -208q44 38 108.5 60.5t126.5 22.5q132 0 216.5 -53t84.5 -160q0 -111 -105 -193t-249 -82zM356 7q114 0 176.5 66t62.5 181q0 100 -46 145.5
t-140 45.5q-133 0 -238 -92q-7 -34 -5 -100q7 -246 190 -246z" />
    <glyph glyph-name="seven" unicode="7" horiz-adv-x="720" 
d="M423 0h-229q-1 48 25 127.5t86 172.5q102 132 287 295h-420l-148 -85h-4l151 211h4l17 -40h508v-4q-34 -30 -66.5 -62t-65.5 -66.5t-42 -43.5q-59 -59 -114 -137q-122 -173 -100 -294l111 -70v-4z" />
    <glyph glyph-name="eight" unicode="8" horiz-adv-x="880" 
d="M435 -18q-73 0 -139.5 12t-122.5 35t-89.5 63.5t-33.5 91.5q0 62 69.5 111t164.5 76q-182 54 -182 160q0 58 51 101.5t124 63.5t152 20t150 -16.5t121.5 -55.5t50.5 -93q0 -101 -177 -169q118 -31 186.5 -75.5t69.5 -116.5q0 -68 -64 -117t-151 -70t-180 -21zM651 550
q0 74 -61.5 107.5t-162.5 33.5q-97 0 -169 -33.5t-72 -94.5q0 -87 179 -130l183 -43q103 50 103 160zM435 7q115 0 196 40t81 117q0 61 -58 97t-158 60l-185 41q-68 -25 -106 -70t-38 -102q0 -88 77.5 -135.5t190.5 -47.5z" />
    <glyph glyph-name="nine" unicode="9" horiz-adv-x="760" 
d="M374 723q151 0 243.5 -87t92.5 -230q0 -151 -161 -267q-162 -119 -395 -150v23q184 33 292 105q111 73 140 208q-44 -38 -108.5 -60.5t-126.5 -22.5q-130 0 -215.5 57t-85.5 164q0 117 89 188.5t235 71.5zM374 698q-112 0 -160.5 -54t-48.5 -178q0 -199 186 -199
q133 0 238 92q5 25 5 47q0 157 -51 224.5t-169 67.5z" />
    <glyph glyph-name="colon" unicode=":" horiz-adv-x="204" 
d="M102 360q-21 0 -36.5 15t-15.5 37t15 37t37 15q21 0 36.5 -15t15.5 -37t-15 -37t-37 -15zM102 -8q-21 0 -36.5 15t-15.5 37t15 37t37 15q21 0 36.5 -15t15.5 -37t-15 -37t-37 -15z" />
    <glyph glyph-name="semicolon" unicode=";" horiz-adv-x="213" 
d="M102 360q-21 0 -36 15q-16 15 -16 37t16 37q15 15 36 15q20 0 37 -15q15 -15 15 -37t-15 -37q-16 -15 -37 -15zM100 -5q-22 0 -36 15q-14 14 -14 35t15 37q15 15 38 15q25 0 43 -20q17 -20 17 -56q0 -49 -28 -84q-28 -34 -70 -48l-6 17q79 31 79 105q-12 -16 -38 -16z
" />
    <glyph glyph-name="less" unicode="&#x3c;" horiz-adv-x="486" 
d="M50 310v26l376 176l10 -23l-355 -166l355 -166l-10 -23z" />
    <glyph glyph-name="equal" unicode="=" horiz-adv-x="500" 
d="M50 355h400v-25h-400v25zM50 176h400v-25h-400v25z" />
    <glyph glyph-name="greater" unicode="&#x3e;" horiz-adv-x="486" 
d="M50 157l355 166l-355 166l10 23l376 -176v-26l-376 -176z" />
    <glyph glyph-name="question" unicode="?" horiz-adv-x="517" 
d="M224 344l1 -138h17l7 111q12 0 35.5 6t55 21t60 36t48 55.5t19.5 74.5q0 78 -57 128.5t-155 50.5q-91 0 -148 -52t-57 -118l44 -44q0 99 44 150t117 51q60 0 98.5 -45.5t38.5 -120.5q0 -166 -168 -166zM234 -8q-21 0 -36.5 15t-15.5 37t15 37t37 15t37 -15t15 -37
q0 -23 -15.5 -37.5t-36.5 -14.5z" />
    <glyph glyph-name="at" unicode="@" horiz-adv-x="833" 
d="M433 -171q-169 0 -276 108.5t-107 281.5t106 282.5t275 109.5q156 0 254 -92t98 -238q0 -131 -67.5 -213.5t-174.5 -82.5q-35 0 -62 20q-26 21 -26 56q0 53 36 130l57 132l-154 -225q-45 -65 -71 -87q-28 -26 -66 -26q-27 0 -41 16q-15 17 -15 45q0 44 39 149
q39 100 81 156q35 46 78 75t77 29q33 0 53 -16q10 -6 47 -46q23 8 45 26t32 40l13 -5l-122 -294q-30 -70 -30 -106q0 -19 11 -30q12 -12 29 -12q92 0 149.5 75t57.5 194q0 137 -91.5 222.5t-236.5 85.5q-158 0 -257.5 -103t-99.5 -267q0 -163 100 -265.5t259 -102.5
q108 0 198 56t125 145l18 -7q-35 -95 -130.5 -155.5t-210.5 -60.5zM286 22q26 0 87 88l186 267q-43 55 -82 55q-28 0 -52 -21q-25 -22 -61 -79q-38 -60 -67 -153t-29 -133q0 -24 18 -24z" />
    <glyph glyph-name="A" unicode="A" 
d="M15 0v4l164 71l326 550l-44 75h95l365 -625l159 -71v-4h-359v4l104 71l-66 115h-484l-68 -115l110 -71v-4h-302zM289 215h455l-223 383z" />
    <glyph glyph-name="B" unicode="B" horiz-adv-x="909" 
d="M566 367q154 -13 226 -57t72 -124q0 -97 -99 -141.5t-318 -44.5h-412v4l128 70l1 551l-129 71v4h384q215 0 313 -41.5t98 -130.5q0 -70 -63.5 -109.5t-200.5 -51.5zM243 680v-302h176q160 0 235.5 36.5t75.5 114.5t-75.5 114.5t-235.5 36.5h-176zM419 23q165 0 243 40
t78 125q0 88 -78 129t-243 41h-176v-335h176z" />
    <glyph glyph-name="C" unicode="C" horiz-adv-x="826" 
d="M759 217l14 -23q-48 -102 -152.5 -157t-225.5 -53q-91 2 -169.5 35t-134.5 105t-68 171q-11 89 18 168t84.5 132.5t130 84.5t153.5 31q99 0 211 -54l44 52h4l123 -259l-4 -4q-75 96 -185.5 168.5t-192.5 72.5q-156 0 -231 -96.5t-50 -254.5q24 -149 118.5 -231t213.5 -81
q91 1 171.5 50.5t127.5 142.5z" />
    <glyph glyph-name="D" unicode="D" horiz-adv-x="855" 
d="M35 0h359q199 0 320 95t121 250q0 160 -121 257.5t-320 97.5h-359v-4l129 -71l-1 -551l-128 -70v-4zM243 677h171q143 0 223.5 -90t80.5 -242q0 -147 -80.5 -234t-223.5 -87h-171v653z" />
    <glyph glyph-name="E" unicode="E" horiz-adv-x="857" 
d="M143 624l-103 71v5l540 -2l43 34h4l173 -238l-4 -4l-229 183h-339v-286h344l60 125h17v-271h-17l-60 126h-344v-338h371l239 227h4l-179 -307h-13l-23 50h-592v5l108 71v549z" />
    <glyph glyph-name="F" unicode="F" horiz-adv-x="815" 
d="M146 608l-106 71v5l540 -2l43 34h4l173 -238l-4 -4l-229 183h-341l5 -296h341l60 125h17v-271h-17l-60 126h-341l-5 -266l112 -71v-4l-303 -1v5l111 71v533z" />
    <glyph glyph-name="G" unicode="G" horiz-adv-x="974" 
d="M939 334v-4l-150 -58q0 -53 -1 -102.5t6.5 -96t23.5 -70.5h-10l-84 77q-103 -96 -284 -98q-167 -1 -283.5 107.5t-116.5 255.5q0 149 116 259t283 110q95 0 211 -56l44 51h4l123 -253l-4 -4q-76 94 -186 165t-192 71q-151 0 -216 -84t-65 -259q0 -158 80.5 -247.5
t201.5 -89.5q153 0 203 55t50 209l-403 58v4h649z" />
    <glyph glyph-name="H" unicode="H" horiz-adv-x="953" 
d="M918 696l-111 -71v-550l111 -71v-4h-303v4l112 71v274h-500v-274l111 -71v-4h-303v4l112 71v550l-112 71v4h303v-4l-111 -71v-251h500v251l-112 71v4h303v-4z" />
    <glyph glyph-name="I" unicode="I" horiz-adv-x="420" 
d="M35 700h350v-4l-133 -61v-570l133 -61v-4h-350v4l135 61v570l-135 61v4z" />
    <glyph glyph-name="J" unicode="J" horiz-adv-x="710" 
d="M-20 67q25 -33 109 -59t170 -26q297 0 301 212l2 441l113 61v4h-313v-4l113 -61l-3 -441q-2 -93 -47.5 -139.5t-147.5 -46.5q-89 0 -154 41t-95 113h-2z" />
    <glyph glyph-name="K" unicode="K" horiz-adv-x="954" 
d="M914 696l-186 -57l-251 -195l272 -380l137 -60v-4h-284v4l50 60l-235 333l-190 -147v-186l111 -60v-4h-303v4l112 60v570l-112 62v4h303v-4l-111 -62v-353l176 135l-31 44h89l235 179l-83 57v4h301v-4z" />
    <glyph glyph-name="L" unicode="L" horiz-adv-x="766" 
d="M35 700h287v-5l-107 -70v-590h390l187 168l4 -4l-129 -233h-3l-37 34h-569v4l77 71v550l-100 70v5z" />
    <glyph glyph-name="M" unicode="M" horiz-adv-x="1221" 
d="M35 0v4l126 71v577l-125 43v5h212l350 -605l383 605h205v-4l-125 -44v-577l99 -71v-4h-278v4l99 71v573l-369 -578l41 -70h-97l-369 642v-567l126 -71v-4h-278z" />
    <glyph glyph-name="N" unicode="N" horiz-adv-x="969" 
d="M161 75v577l-125 43v5h214l532 -600v525l-126 71v4h278v-4l-126 -71v-555l61 -70h-113l-569 642v-567l126 -71v-4h-278v4z" />
    <glyph glyph-name="O" unicode="O" horiz-adv-x="880" 
d="M440 -18q-167 -1 -283.5 107.5t-116.5 255.5q0 149 116 259t283 110q166 0 283.5 -111t117.5 -258q0 -148 -116.5 -255t-283.5 -108zM440 8q151 0 215.5 84t64.5 253q0 175 -64.5 259t-216.5 84t-216.5 -84t-64.5 -259q0 -170 65 -253.5t217 -83.5z" />
    <glyph glyph-name="P" unicode="P" horiz-adv-x="875" 
d="M35 0h376v4l-168 70v257h176q421 0 421 189q0 36 -17 64.5t-42 47t-64.5 32t-74.5 20.5t-81 10.5t-75.5 4.5t-66.5 1h-384v-4l129 -71l-1 -551l-128 -70v-4zM243 680h176q311 0 311 -160q0 -49 -23 -83t-67 -52t-97 -26t-124 -8h-176v329z" />
    <glyph glyph-name="Q" unicode="Q" horiz-adv-x="880" 
d="M628 -59q68 1 121.5 -9.5t73.5 -28.5l-63 -117h-4q-19 46 -74 74t-125 28q-86 0 -200 -28t-215 -74h-4l169 216q-119 38 -193 133t-74 210q0 149 116 259t283 110q166 0 283.5 -111t117.5 -258q0 -148 -116.5 -255t-283.5 -108q-57 0 -113 14l-131 -165h4q84 48 202 78
t226 32zM158 345q0 -134 39 -213.5t127 -107.5l42 54h26l-47 -60q40 -10 95 -10q151 0 215.5 84t64.5 253q0 175 -64.5 259t-216.5 84t-216.5 -84t-64.5 -259z" />
    <glyph glyph-name="R" unicode="R" horiz-adv-x="955" 
d="M748 71l172 -70v-4h-210l-279 334h-12h-176v-257l128 -70v-4h-336v4l128 70l1 551l-129 71v4h384q37 0 66.5 -1t75.5 -4.5t81 -10.5t74.5 -20.5t64.5 -32t42 -47t17 -64.5q0 -166 -314 -186zM243 351h171l-91 109h96l89 -105q222 19 222 165q0 160 -311 160h-176v-329z
" />
    <glyph glyph-name="S" unicode="S" horiz-adv-x="856" 
d="M143 3l69 77q62 -43 152.5 -69t175.5 -26q59 0 103 7t86.5 25t65.5 56t23 94q0 37 -13.5 67.5t-40.5 52t-56.5 37.5t-72 29t-76 21t-79 18.5t-71.5 17.5q-145 40 -200 76.5t-55 84.5q0 56 43 85.5t110 27.5q48 0 108 -14.5t130 -44.5t141.5 -86.5t126.5 -129.5l4 8
l-133 275l-69 -77q-195 95 -308 95q-106 0 -169.5 -46t-63.5 -115q0 -42 21.5 -77t64.5 -62t90 -47t115 -41q42 -13 104.5 -27.5t103.5 -24.5t82.5 -26t62 -41.5t20.5 -61.5q0 -65 -57.5 -98t-155.5 -33q-150 0 -277.5 72t-207.5 208l-5 -8z" />
    <glyph glyph-name="T" unicode="T" horiz-adv-x="994" 
d="M18 477l-3 4l128 233h3l37 -34h627l37 34h3l129 -233l-4 -4l-187 168h-248l9 -570l96 -70v-5h-286v5l100 70l-4 570h-248z" />
    <glyph glyph-name="U" unicode="U" horiz-adv-x="1017" 
d="M35 701l3 -3l112 -73v-403q0 -19 -16 -44t-37 -25q85 -63 134.5 -94t121 -53.5t153.5 -22.5q115 0 217 46.5t164 123.5q-19 0 -29.5 23t-10.5 46l-3 403l138 73v3h-296v-2l123 -74v-444q0 -77 -83 -124t-220 -47q-120 0 -193.5 66t-73.5 175v374l109 72l1 4h-314z" />
    <glyph glyph-name="V" unicode="V" 
d="M1080 700v-4l-164 -71l-326 -550l44 -75h-95l-365 625l-159 71v4h359v-4l-104 -71l66 -115l240 -411l312 526l-110 71v4h302z" />
    <glyph glyph-name="W" unicode="W" horiz-adv-x="1583" 
d="M1246 702h302v-4l-164 -71l-226 -550l44 -75h-95l-316 541l-191 -466l44 -75h-95l-365 625l-159 71v4h359v-4l-104 -71l66 -115l240 -411l189 469l-33 57l-159 71v4h359v-4l-104 -71l66 -115l240 -411l212 526l-110 71v4z" />
    <glyph glyph-name="X" unicode="X" horiz-adv-x="1043" 
d="M863 75l180 -71v-4h-410v4l123 71h2l-265 257l-236 -256l133 -70v-4h-349v4l180 71l255 272l-295 286l-181 61v4h410v-4l-112 -71l236 -229l229 229l-135 71v4h350v-4l-180 -71l-247 -247z" />
    <glyph glyph-name="Y" unicode="Y" horiz-adv-x="947" 
d="M630 700h302v-4l-164 -71l-252 -354l12 -196l96 -71v-4l-303 -1v5l111 71v196l-258 354l-159 71v4h359v-4l-104 -71l233 -328l237 328l-110 71v4z" />
    <glyph glyph-name="Z" unicode="Z" horiz-adv-x="899" 
d="M622 0l47 -35h14l181 291h-4l-259 -236h-409l554 640v20h-519l-50 35h-3l-139 -238l4 -3l209 186h388l-579 -646v-14h565z" />
    <glyph glyph-name="bracketleft" unicode="[" horiz-adv-x="265" 
d="M215 -171q-105 0 -165 -3v901q60 -3 165 -3v-20q-30 0 -141 -3q42 -197 42 -425q0 -227 -42 -424q111 -3 141 -3v-20z" />
    <glyph glyph-name="backslash" unicode="\" horiz-adv-x="426" 
d="M50 720l24 9l302 -897l-24 -9z" />
    <glyph glyph-name="bracketright" unicode="]" horiz-adv-x="265" 
d="M50 -151q30 0 141 3q-42 197 -42 425q0 227 42 424q-111 3 -141 3v20q105 0 165 3v-901q-60 3 -165 3v20z" />
    <glyph glyph-name="asciicircum" unicode="^" horiz-adv-x="478" 
d="M405 311l-167 365l-165 -365l-23 10l176 384h26l176 -384z" />
    <glyph glyph-name="underscore" unicode="_" horiz-adv-x="522" 
d="M50 -96v25h422v-25h-422z" />
    <glyph glyph-name="grave" unicode="`" horiz-adv-x="600" 
d="M773 739l-4 -4l-161 65q-33 13 -49.5 30t-8.5 30q11 18 33.5 15.5t49.5 -24.5z" />
    <glyph glyph-name="a" unicode="a" horiz-adv-x="830" 
d="M785 0h-188v102q-54 -47 -134 -82t-169 -35q-107 0 -163 27t-56 89q0 60 55.5 95.5t183.5 61.5q142 29 283 60q0 95 -34.5 138.5t-114.5 43.5q-68 0 -124 -21t-87 -51t-52.5 -60.5t-28.5 -51.5l-8 -21h-4l-49 89q14 16 35.5 32.5t64 41.5t109 41t144.5 16q229 0 229 -182
l-1 -271l109 -58v-4zM597 122v181q-77 -19 -131 -31q-12 -3 -40 -9l-42 -9t-40 -9.5t-40.5 -11.5t-36.5 -13t-34.5 -15.5t-27 -18.5t-22 -22.5t-13 -26t-5.5 -30.5q0 -88 153 -84q76 2 155 29t124 70z" />
    <glyph glyph-name="b" unicode="b" horiz-adv-x="807" 
d="M442 507q148 0 236.5 -79t88.5 -188q0 -107 -88 -182.5t-236 -76.5q-129 0 -205 67l-74 -48h-2v634l-112 62v4h192v-263q76 70 200 70zM443 -4q114 -1 174 66.5t60 177.5q0 108 -60.5 180.5t-174.5 72.5q-123 -1 -200 -73v-357q74 -67 201 -67z" />
    <glyph glyph-name="c" unicode="c" horiz-adv-x="719" 
d="M604 295h-4q-20 90 -76.5 147.5t-160.5 57.5q-111 0 -172 -64t-61 -186q0 -95 78 -160.5t183 -67.5q110 -1 184 43t89 88l15 -17q-28 -57 -109 -106t-207 -49q-135 0 -232 76.5t-91 192.5q5 109 94.5 184.5t228.5 79.5q66 2 122.5 -11t90 -32.5t57.5 -39t33 -33.5l9 -14z
" />
    <glyph glyph-name="d" unicode="d" horiz-adv-x="767" 
d="M645 65l112 -61v-4h-192v45q-75 -64 -201 -64q-148 1 -236 76.5t-88 182.5q0 109 88.5 188t236.5 79q124 0 200 -70v199l-112 59v5h192v-635zM364 -4q127 0 201 67v357q-75 72 -200 73q-114 0 -174.5 -72.5t-60.5 -180.5q0 -110 60 -177.5t174 -66.5z" />
    <glyph glyph-name="e" unicode="e" horiz-adv-x="720" 
d="M680 255l-550 10q0 -108 79.5 -175t181.5 -69q82 -1 156 31.5t87 69.5l15 -17q-23 -47 -105.5 -86t-180.5 -39q-135 0 -232 76.5t-91 193.5q5 110 95.5 187.5t227.5 76.5q144 1 230.5 -72t86.5 -187zM130 281l465 15q0 38 -12.5 72.5t-38.5 65t-72.5 48.5t-108.5 18
q-44 0 -82 -9.5t-73.5 -32t-56.5 -68t-21 -109.5z" />
    <glyph glyph-name="f" unicode="f" horiz-adv-x="645" 
d="M705 615q-19 37 -86 61t-153 24q-287 0 -291 -212h-112v-18h112l-2 -405l-113 -61v-4h353v4l-163 61l3 405h310v18h-310q3 199 195 199q83 0 129 -42.5t80 -124.5h2z" />
    <glyph glyph-name="g" unicode="g" horiz-adv-x="787" 
d="M571 5q62 -8 98.5 -36.5t37.5 -73.5q-1 -56 -82.5 -84.5t-211.5 -28.5q-177 0 -275.5 33t-97.5 91q-1 32 37.5 55.5t98.5 32.5q-97 23 -97 74q0 29 38 50.5t85 30.5q-55 27 -85 73t-29 106q1 87 71.5 140t184.5 53q125 0 198 -65q63 46 109 55q81 16 106 -34
q-8 -12 -26 -46t-26 -46l-4 1q-10 44 -34.5 65t-54.5 18.5t-62 -21.5q57 -57 57 -142q0 -84 -72 -135t-191 -51q-70 0 -122 21q-55 -19 -57 -48q2 -29 73 -42zM344 504q-81 0 -127.5 -49.5t-46.5 -125.5t47 -133t127 -57t133 58t53 132q0 75 -52 125t-134 50zM419 -200
q98 0 153 21.5t55 61.5q0 45 -64 54q-187 25 -361 52q-29 -5 -55.5 -27.5t-26.5 -45.5q0 -47 85.5 -81t213.5 -35z" />
    <glyph glyph-name="h" unicode="h" horiz-adv-x="903" 
d="M753 57l110 -53v-4h-303v4l113 53v267q0 169 -166 169q-53 0 -98 -12t-72 -28.5t-49 -38.5t-31 -35.5t-15 -26.5v-287l111 -61v-4h-303v4l112 61v569l-112 62v4h192v-312q9 14 24.5 29.5t47.5 39t84 39t114 15.5q241 1 241 -187v-267z" />
    <glyph glyph-name="i" unicode="i" horiz-adv-x="403" 
d="M202 600q-22 0 -36 14t-14 36t14 36t36 14t36 -14t14 -36t-14 -36t-36 -14zM240 65l113 -61v-4h-303v4l115 61v369l-115 62v4h190v-435z" />
    <glyph glyph-name="j" unicode="j" horiz-adv-x="579" 
d="M529 504v-4l-116 -61l1 -439q0 -54 -19.5 -94.5t-51 -62.5t-64.5 -32.5t-66 -10.5q-109 0 -173 58l35 87h4q68 -85 127.5 -114t97 13t36.5 156l3 439l-117 61v4h303z" />
    <glyph glyph-name="k" unicode="k" horiz-adv-x="857" 
d="M675 64l127 -60v-4h-284v4l50 60l-179 219l-147 -85v-134l111 -60v-4h-303v4l112 60v570l-112 62v4h192v-476l131 78l-34 42h103l159 94l-83 58v4h242v-4l-301 -173z" />
    <glyph glyph-name="l" unicode="l" horiz-adv-x="403" 
d="M50 700h190v-635l113 -61v-4h-303v4l115 61v569l-115 62v4z" />
    <glyph glyph-name="m" unicode="m" horiz-adv-x="1376" 
d="M1229 57l107 -53v-4h-296v4l111 53v267q0 82 -41 125.5t-121 43.5q-59 0 -107.5 -15t-77.5 -38.5t-44.5 -42t-25.5 -37.5q2 -24 2 -36v-267l107 -53v-4h-296v4l111 53v267q0 82 -41 125.5t-121 43.5q-52 0 -96 -12t-70.5 -28.5t-48 -38.5t-30 -35.5t-14.5 -26.5v-287
l109 -61v-4h-296v4l109 61v369l-109 62v4h187v-112q9 14 24 29.5t46.5 39t82 39t111.5 15.5q192 1 227 -126q8 13 22 28t45 40t83.5 41.5t115.5 16.5q235 1 235 -187v-267z" />
    <glyph glyph-name="n" unicode="n" horiz-adv-x="903" 
d="M753 57l110 -53v-4h-303v4l113 53v267q0 169 -166 169q-53 0 -98 -12t-72 -28.5t-49 -38.5t-31 -35.5t-15 -26.5v-287l111 -61v-4h-303v4l112 61v369l-112 62v4h192v-112q9 14 24.5 29.5t47.5 39t84 39t114 15.5q241 1 241 -187v-267z" />
    <glyph glyph-name="o" unicode="o" horiz-adv-x="745" 
d="M375 -20q-159 0 -247.5 76t-87.5 188q1 113 92 191.5t243 78.5q158 0 244 -77.5t86 -192.5q0 -113 -86 -188.5t-244 -75.5zM375 -6q112 0 176.5 71.5t64.5 178.5q0 110 -64 183t-177 73t-179.5 -73.5t-66.5 -182.5q0 -106 66.5 -178t179.5 -72z" />
    <glyph glyph-name="p" unicode="p" horiz-adv-x="827" 
d="M462 507q148 0 236.5 -75.5t88.5 -183.5q0 -107 -88 -182.5t-236 -76.5q-145 0 -221 78v-203l161 -61v-4h-353v4l112 61v569l-112 62v4h192v-83q77 91 220 91zM463 4q114 -1 174 66.5t60 177.5q0 107 -60.5 176t-174.5 69q-145 -3 -220 -95v-312q76 -82 221 -82z" />
    <glyph glyph-name="q" unicode="q" horiz-adv-x="787" 
d="M665 -136l112 -61v-4h-353v4l161 61v203q-76 -78 -221 -78q-148 1 -236 76.5t-88 182.5q0 108 88.5 183.5t236.5 75.5q147 0 223 -94l75 87h2v-636zM364 4q145 0 221 82v312q-75 92 -220 95q-114 0 -174.5 -69t-60.5 -176q0 -110 60 -177.5t174 -66.5z" />
    <glyph glyph-name="r" unicode="r" horiz-adv-x="673" 
d="M451 511q37 0 67.5 -7.5t48 -18.5t30 -23t17 -20.5t4.5 -12.5l-67 -107h-4q0 81 -31.5 124.5t-89.5 43.5q-55 0 -97 -48.5t-87 -140.5v-236l141 -61v-4h-333v4l112 61v369l-112 62v4h192v-160q35 76 87.5 123.5t121.5 47.5z" />
    <glyph glyph-name="s" unicode="s" horiz-adv-x="782" 
d="M150 -2l58 55q53 -32 129 -52.5t146 -20.5q238 0 239 135q0 26 -11.5 47.5t-34.5 37t-49 27t-61.5 20.5t-64.5 15t-67.5 13.5t-60.5 12.5q-119 28 -162 55t-43 62q0 41 32 62t87 19q83 0 210.5 -49.5t213.5 -147.5l4 6l-112 197l-55 -51q-58 25 -133.5 44.5t-127.5 19.5
q-89 0 -145 -33t-56 -83q0 -26 14 -48.5t34.5 -38.5t56 -31t67 -24.5t78.5 -22.5q33 -9 86 -20t85.5 -19t66.5 -19.5t50 -28.5t16 -40q0 -47 -45 -73t-125 -26q-124 0 -231 53.5t-175 152.5l-4 -6z" />
    <glyph glyph-name="t" unicode="t" horiz-adv-x="669" 
d="M629 156q-3 -16 -9.5 -34.5t-23 -45t-38.5 -46.5t-60 -35t-85 -15q-135 0 -198.5 57t-62.5 165l1 267h-113v18h79l119 163h4v-163h363v-18h-363v-252q0 -107 40.5 -162t132.5 -55q48 0 84.5 17.5t55 45t27.5 53t9 47.5z" />
    <glyph glyph-name="u" unicode="u" horiz-adv-x="883" 
d="M721 500v-434l112 -62v-4h-192v87q-89 -97 -250 -98q-241 -1 -241 187v267l-110 53v4h190v-324q0 -169 166 -169t245 108v320l-111 61v4h191z" />
    <glyph glyph-name="v" unicode="v" horiz-adv-x="731" 
d="M164 428l71 58v4h-285v-4l122 -58l277 -428h103l-40 61l231 367l138 58v4h-242v-4l83 -58l-223 -349z" />
    <glyph glyph-name="w" unicode="w" horiz-adv-x="1021" 
d="M829 500h242v-4l-138 -58l-177 -374l33 -64h-97l-181 361l-158 -291l36 -70h-97l-220 438l-122 58v4h325v-4l-111 -58l178 -347l158 291l-28 56l-122 58v4h285v-4l-71 -58l180 -352l168 352l-83 58v4z" />
    <glyph glyph-name="x" unicode="x" horiz-adv-x="615" 
d="M556 54l109 -51v-3h-293v3l88 51h1l-167 170l-178 -170l96 -50v-3h-249v3l127 51l191 181l-207 211l-124 50v3h293v-3l-73 -50l161 -164l164 164l-97 50v3h251v-3l-129 -50l-176 -177z" />
    <glyph glyph-name="y" unicode="y" horiz-adv-x="731" 
d="M539 500h242v-4l-138 -58l-242 -361l51 -77h-104q-4 -6 -13 -19q-33 -49 -50.5 -72.5t-46 -53.5t-55.5 -42.5t-58 -12.5q-38 1 -75 17.5t-59 40.5l35 87h4q36 -46 66.5 -68.5t57.5 -25.5t56.5 18.5t58 55t68.5 92.5l-265 421l-122 58v4h285v-4l-71 -58l225 -343l233 343
l-83 58v4z" />
    <glyph glyph-name="z" unicode="z" horiz-adv-x="769" 
d="M562 0l54 -35h4l109 188h-4l-163 -133h-395l522 460v20h-479l-57 35h-3l-110 -188h4l166 133h375l-545 -466v-14h522z" />
    <glyph glyph-name="braceleft" unicode="{" horiz-adv-x="335" 
d="M180 -58q0 -44 22 -63q20 -19 83 -34l-5 -19q-88 21 -122 52q-36 32 -36 105q0 27 5 95t5 77q0 53 -17 79q-17 27 -65 28v26q48 1 65 28q17 26 17 79q0 10 -5 78t-5 94q0 73 36 105q34 31 122 52l5 -19q-63 -15 -83 -34q-22 -19 -22 -63q0 -10 5 -97q5 -88 5 -102
q0 -117 -102 -134q102 -17 102 -134q0 -14 -5 -101q-5 -88 -5 -98z" />
    <glyph glyph-name="bar" unicode="|" horiz-adv-x="126" 
d="M50 -217v987h26v-987h-26z" />
    <glyph glyph-name="braceright" unicode="}" horiz-adv-x="335" 
d="M213 -17q0 -73 -35 -105q-35 -31 -123 -52l-5 19q62 15 84 34q21 19 21 63q0 10 -5 98q-5 87 -5 101q0 117 102 134q-102 17 -102 134q0 14 5 102q5 87 5 97q0 44 -21 63q-22 19 -84 34l5 19q88 -21 123 -52q35 -32 35 -105q0 -26 -5 -94t-5 -78q0 -53 17 -79
q17 -27 65 -28v-26q-48 -1 -65 -28q-17 -26 -17 -79q0 -9 5 -77t5 -95z" />
    <glyph glyph-name="exclamdown" unicode="&#xa1;" horiz-adv-x="204" 
d="M102 498q21 0 36.5 -15t15.5 -37t-15 -37t-37 -15q-21 0 -36.5 15t-15.5 37t15 37t37 15zM113 284l27 -434q0 -48 -38 -48q-37 0 -37 48l26 434h22z" />
    <glyph glyph-name="cent" unicode="&#xa2;" horiz-adv-x="739" 
d="M674 158l15 -17q-28 -57 -109 -106t-207 -49q-38 0 -80 8l-41 -122l-20 8l40 119q-100 25 -163 93t-59 158q0 108 91.5 184t231.5 80q38 2 71 -3l43 129l21 -8l-42 -124q46 -7 85.5 -22.5t63 -32.5t40.5 -32.5t23 -26.5l7 -10l-71 -89h-4q-33 151 -151 192l-150 -444
q46 -16 92 -16q110 -1 184 43t89 88zM140 250q0 -65 41.5 -118.5t107.5 -81.5l149 443q-28 7 -65 7q-111 0 -172 -64t-61 -186z" />
    <glyph glyph-name="sterling" unicode="&#xa3;" horiz-adv-x="609" 
d="M443 -8q-22 0 -45.5 7.5t-40.5 16.5t-57 32q-22 13 -33 17q-45 -75 -126 -75q-39 0 -65 21q-26 20 -26 54t29 57q29 21 76 21q41 0 111 -29q15 79 -36 194h-136v15h125q-58 122 -58 199q0 74 58 122q59 47 128 47q67 0 123 -39q51 -36 60 -94l-41 -45q-2 19 -6 37t-14 42
t-24.5 42t-40 30.5t-57.5 12.5q-57 0 -97 -40q-30 -31 -30 -85q0 -23 6 -53q6 -31 12 -50q16 -53 20 -62q2 -6 10 -29t14 -35h184v-15h-173q14 -56 14 -99q0 -46 -20 -102l25 -11q38 -18 63 -27q47 -17 80 -17q76 0 76 86q0 55 -26 93l15 12q16 -21 27.5 -54.5t11.5 -61.5
q0 -62 -30 -98q-31 -37 -86 -37zM138 8q84 0 116 66q-59 46 -120 46q-31 0 -50 -15q-19 -16 -19 -40q0 -26 20 -41q20 -16 53 -16z" />
    <glyph glyph-name="dieresis" unicode="&#xa8;" horiz-adv-x="378" 
d="M139 628q0 -19 -13 -31q-13 -13 -32 -13q-18 0 -31 13q-13 12 -13 31t13 32t31 13q19 0 32 -13t13 -32zM328 628q0 -18 -13 -31t-32 -13t-31 13q-13 12 -13 31t13 32q12 13 31 13t32 -13t13 -32z" />
    <glyph glyph-name="copyright" unicode="&#xa9;" horiz-adv-x="792" 
d="M393 -9q-153 0 -249.5 97.5t-96.5 251.5t96.5 251.5t249.5 97.5t249.5 -97.5t96.5 -251.5t-96.5 -251.5t-249.5 -97.5zM393 15q141 0 230 90.5t89 234.5t-89 234.5t-230 90.5t-230 -90.5t-89 -234.5t89 -234.5t230 -90.5zM545 368h-3q-11 55 -46.5 91t-99.5 36
q-70 0 -107.5 -39.5t-37.5 -115.5q0 -57 48.5 -97t113.5 -41q68 -1 113.5 26t55.5 55l9 -10q-16 -36 -66.5 -66.5t-128.5 -30.5q-84 0 -144.5 47t-56.5 117q0 67 57 114.5t144 49.5q41 1 76 -7t55.5 -20t35.5 -24t21 -21l6 -8z" />
    <glyph glyph-name="guillemotleft" unicode="&#xab;" horiz-adv-x="490" 
d="M269 129q-33 33 -83 76q-17 15 -47.5 40.5t-42.5 35.5q-37 31 -46 37q9 6 46 37q12 10 42.5 35.5t47.5 40.5q50 43 83 76l14 -14q-86 -96 -141 -175q55 -79 141 -175zM426 129q-33 33 -83 76q-17 15 -47.5 40.5t-42.5 35.5q-37 31 -46 37q9 6 46 37q12 10 42.5 35.5
t47.5 40.5q50 43 83 76l14 -14q-86 -96 -141 -175q55 -79 141 -175z" />
    <glyph glyph-name="macron" unicode="&#xaf;" horiz-adv-x="345" 
d="M55 606v25h240v-25h-240z" />
    <glyph glyph-name="degree" unicode="&#xb0;" horiz-adv-x="600" 
d="M161 455q-51 0 -84 33t-33 85q0 53 33.5 85.5t83.5 32.5q51 0 84 -33t33 -85q0 -53 -33.5 -85.5t-83.5 -32.5zM161 480q39 0 64.5 26t25.5 67q0 42 -26 67.5t-64 25.5q-39 0 -64.5 -26t-25.5 -67q0 -42 26 -67.5t64 -25.5z" />
    <glyph glyph-name="paragraph" unicode="&#xb6;" horiz-adv-x="765" 
d="M715 700v-700h-30v680h-99l1 -606v-74h-248v4l168 70v257h-36q-421 0 -421 189q0 36 17 64.5t42 47t64.5 32t74.5 20.5t81 10.5t75.5 4.5t66.5 1h244zM507 351v329h-36q-311 0 -311 -160q0 -49 23 -83t67 -52t97 -26t124 -8h36z" />
    <glyph glyph-name="cedilla" unicode="&#xb8;" horiz-adv-x="290" 
d="M240 -117q0 -50 -59 -88q-60 -37 -129 -45l-2 16q63 9 103 39q41 30 41 64q0 38 -45 38q-29 0 -55 -14l-11 11l85 96h14l-35 -57q4 1 16 1q33 0 56 -17q21 -17 21 -44z" />
    <glyph glyph-name="guillemotright" unicode="&#xbb;" horiz-adv-x="490" 
d="M50 143q86 96 141 175q-55 79 -141 175l14 14q35 -35 84 -76q71 -61 89 -76q37 -31 46 -37q-9 -6 -46 -37q-18 -15 -89 -76q-49 -41 -84 -76zM207 143q86 96 141 175q-55 79 -141 175l14 14q35 -35 84 -76q71 -61 89 -76q37 -31 46 -37q-9 -6 -46 -37q-18 -15 -89 -76
q-49 -41 -84 -76z" />
    <glyph glyph-name="questiondown" unicode="&#xbf;" horiz-adv-x="517" 
d="M283 498q21 0 36.5 -15t15.5 -37t-15 -37t-37 -15t-37 15t-15 37q0 23 15.5 37.5t36.5 14.5zM293 146l-1 138h-17l-7 -111q-12 0 -35.5 -6t-55 -21t-60 -36t-48 -55.5t-19.5 -74.5q0 -78 57 -128.5t155 -50.5q91 0 148 52t57 118l-44 44q0 -99 -44 -150t-117 -51
q-60 0 -98.5 45.5t-38.5 120.5q0 166 168 166z" />
    <glyph glyph-name="Agrave" unicode="&#xc0;" 
d="M661 752l-4 -4l-161 65q-75 31 -58 60q24 40 83 -9zM15 0v4l164 71l326 550l-44 75h95l365 -625l159 -71v-4h-359v4l104 71l-66 115h-484l-68 -115l110 -71v-4h-302zM289 215h455l-223 383z" />
    <glyph glyph-name="Aacute" unicode="&#xc1;" 
d="M435 743l140 112q59 49 83 9q17 -29 -58 -60l-161 -65zM15 0v4l164 71l326 550l-44 75h95l365 -625l159 -71v-4h-359v4l104 71l-66 115h-484l-68 -115l110 -71v-4h-302zM289 215h455l-223 383z" />
    <glyph glyph-name="Acircumflex" unicode="&#xc2;" 
d="M652 718q-35 48 -104 120q-69 -72 -104 -120l-14 10q30 46 82 142q18 34 36 34t36 -34q46 -87 82 -142zM15 0v4l164 71l326 550l-44 75h95l365 -625l159 -71v-4h-359v4l104 71l-66 115h-484l-68 -115l110 -71v-4h-302zM289 215h455l-223 383z" />
    <glyph glyph-name="Atilde" unicode="&#xc3;" 
d="M592 758q-23 0 -58 20t-58 20q-26 0 -60 -55l-14 9q56 90 102 90q24 0 59 -20t57 -20q26 0 60 55l14 -9q-56 -90 -102 -90zM15 0v4l164 71l326 550l-44 75h95l365 -625l159 -71v-4h-359v4l104 71l-66 115h-484l-68 -115l110 -71v-4h-302zM289 215h455l-223 383z" />
    <glyph glyph-name="Adieresis" unicode="&#xc4;" 
d="M498 798q0 -19 -13 -31q-13 -13 -32 -13q-18 0 -31 13q-13 12 -13 31t13 32t31 13q19 0 32 -13t13 -32zM687 798q0 -18 -13 -31t-32 -13t-31 13q-13 12 -13 31t13 32q12 13 31 13t32 -13t13 -32zM15 0v4l164 71l326 550l-44 75h95l365 -625l159 -71v-4h-359v4l104 71
l-66 115h-484l-68 -115l110 -71v-4h-302zM289 215h455l-223 383z" />
    <glyph glyph-name="Aring" unicode="&#xc5;" 
d="M632 809q0 -35 -24 -61q-25 -25 -60 -25q-36 0 -60 25q-24 26 -24 61t24 61q24 24 60 24q35 0 60 -25q24 -25 24 -60zM608 809q0 25 -17 45q-17 18 -43 18t-43 -18q-17 -20 -17 -45t17 -44q16 -19 43 -19t43 19q17 19 17 44zM15 0v4l164 71l326 550l-44 75h95l365 -625
l159 -71v-4h-359v4l104 71l-66 115h-484l-68 -115l110 -71v-4h-302zM289 215h455l-223 383z" />
    <glyph glyph-name="AE" unicode="&#xc6;" horiz-adv-x="1248" 
d="M-50 0v4l164 71l402 562l-85 58v4l-5 1l545 -2l43 34h4l173 -238l-4 -4l-229 183h-339v-286h344l60 125h17v-271h-17l-60 126h-344v-338h371l239 227h4l-179 -307h-13l-23 50h-592v5l108 71v115h-314l-78 -115l110 -71v-4h-302zM238 215h296v409z" />
    <glyph glyph-name="Ccedilla" unicode="&#xc7;" horiz-adv-x="826" 
d="M409 687q-156 0 -231 -96.5t-50 -254.5q24 -149 118.5 -231t213.5 -81q91 1 171.5 50.5t127.5 142.5l14 -23q-43 -93 -135.5 -147.5t-203.5 -61.5l-26 -42q4 1 16 1q33 0 56 -17q21 -16 21 -44q0 -50 -59 -88q-60 -37 -129 -45l-2 16q63 9 103 39q41 30 41 64
q0 38 -45 38q-29 0 -55 -14l-11 11l71 80h-20q-91 2 -169.5 35t-134.5 105t-68 171q-11 89 18 168t84.5 132.5t130 84.5t153.5 31q99 0 211 -54l44 52h4l123 -259l-4 -4q-75 96 -185.5 168.5t-192.5 72.5z" />
    <glyph glyph-name="Egrave" unicode="&#xc8;" horiz-adv-x="857" 
d="M542 752l-4 -4l-161 65q-75 31 -58 60q24 40 83 -9zM143 624l-103 71v5l540 -2l43 34h4l173 -238l-4 -4l-229 183h-339v-286h344l60 125h17v-271h-17l-60 126h-344v-338h371l239 227h4l-179 -307h-13l-23 50h-592v5l108 71v549z" />
    <glyph glyph-name="Eacute" unicode="&#xc9;" horiz-adv-x="857" 
d="M316 743l140 112q59 49 83 9q17 -29 -58 -60l-161 -65zM143 624l-103 71v5l540 -2l43 34h4l173 -238l-4 -4l-229 183h-339v-286h344l60 125h17v-271h-17l-60 126h-344v-338h371l239 227h4l-179 -307h-13l-23 50h-592v5l108 71v549z" />
    <glyph glyph-name="Ecircumflex" unicode="&#xca;" horiz-adv-x="857" 
d="M533 718q-35 48 -104 120q-69 -72 -104 -120l-14 10q30 46 82 142q18 34 36 34t36 -34q46 -87 82 -142zM143 624l-103 71v5l540 -2l43 34h4l173 -238l-4 -4l-229 183h-339v-286h344l60 125h17v-271h-17l-60 126h-344v-338h371l239 227h4l-179 -307h-13l-23 50h-592v5
l108 71v549z" />
    <glyph glyph-name="Edieresis" unicode="&#xcb;" horiz-adv-x="857" 
d="M379 798q0 -19 -13 -31q-13 -13 -32 -13q-18 0 -31 13q-13 12 -13 31t13 32t31 13q19 0 32 -13t13 -32zM568 798q0 -18 -13 -31t-32 -13t-31 13q-13 12 -13 31t13 32q12 13 31 13t32 -13t13 -32zM143 624l-103 71v5l540 -2l43 34h4l173 -238l-4 -4l-229 183h-339v-286
h344l60 125h17v-271h-17l-60 126h-344v-338h371l239 227h4l-179 -307h-13l-23 50h-592v5l108 71v549z" />
    <glyph glyph-name="Igrave" unicode="&#xcc;" horiz-adv-x="420" 
d="M323 752l-4 -4l-161 65q-75 31 -58 60q24 40 83 -9zM35 700h350v-4l-133 -61v-570l133 -61v-4h-350v4l135 61v570l-135 61v4z" />
    <glyph glyph-name="Iacute" unicode="&#xcd;" horiz-adv-x="420" 
d="M97 743l140 112q59 49 83 9q17 -29 -58 -60l-161 -65zM35 700h350v-4l-133 -61v-570l133 -61v-4h-350v4l135 61v570l-135 61v4z" />
    <glyph glyph-name="Ntilde" unicode="&#xd1;" horiz-adv-x="969" 
d="M531 758q-23 0 -58 20t-58 20q-26 0 -60 -55l-14 9q55 90 102 90q24 0 59 -20t57 -20q26 0 60 55l14 -9q-55 -90 -102 -90zM161 75v577l-125 43v5h214l532 -600v525l-126 71v4h278v-4l-126 -71v-555l61 -70h-113l-569 642v-567l126 -71v-4h-278v4z" />
    <glyph glyph-name="Ograve" unicode="&#xd2;" horiz-adv-x="880" 
d="M553 752l-4 -4l-161 65q-75 31 -58 60q24 40 83 -9zM440 -18q-167 -1 -283.5 107.5t-116.5 255.5q0 149 116 259t283 110q166 0 283.5 -111t117.5 -258q0 -148 -116.5 -255t-283.5 -108zM440 8q151 0 215.5 84t64.5 253q0 175 -64.5 259t-216.5 84t-216.5 -84t-64.5 -259
q0 -170 65 -253.5t217 -83.5z" />
    <glyph glyph-name="Oacute" unicode="&#xd3;" horiz-adv-x="880" 
d="M327 743l140 112q59 49 83 9q17 -29 -58 -60l-161 -65zM440 -18q-167 -1 -283.5 107.5t-116.5 255.5q0 149 116 259t283 110q166 0 283.5 -111t117.5 -258q0 -148 -116.5 -255t-283.5 -108zM440 8q151 0 215.5 84t64.5 253q0 175 -64.5 259t-216.5 84t-216.5 -84
t-64.5 -259q0 -170 65 -253.5t217 -83.5z" />
    <glyph glyph-name="Ocircumflex" unicode="&#xd4;" horiz-adv-x="880" 
d="M544 718q-35 48 -104 120q-69 -72 -104 -120l-14 10q30 46 82 142q18 34 36 34t36 -34q46 -87 82 -142zM440 -18q-167 -1 -283.5 107.5t-116.5 255.5q0 149 116 259t283 110q166 0 283.5 -111t117.5 -258q0 -148 -116.5 -255t-283.5 -108zM440 8q151 0 215.5 84t64.5 253
q0 175 -64.5 259t-216.5 84t-216.5 -84t-64.5 -259q0 -170 65 -253.5t217 -83.5z" />
    <glyph glyph-name="Otilde" unicode="&#xd5;" horiz-adv-x="880" 
d="M484 758q-23 0 -58 20t-58 20q-26 0 -60 -55l-14 9q56 90 102 90q24 0 59 -20t57 -20q26 0 60 55l14 -9q-56 -90 -102 -90zM440 -18q-167 -1 -283.5 107.5t-116.5 255.5q0 149 116 259t283 110q166 0 283.5 -111t117.5 -258q0 -148 -116.5 -255t-283.5 -108zM440 8
q151 0 215.5 84t64.5 253q0 175 -64.5 259t-216.5 84t-216.5 -84t-64.5 -259q0 -170 65 -253.5t217 -83.5z" />
    <glyph glyph-name="Odieresis" unicode="&#xd6;" horiz-adv-x="880" 
d="M390 798q0 -19 -13 -31q-13 -13 -32 -13q-18 0 -31 13q-13 12 -13 31t13 32t31 13q19 0 32 -13t13 -32zM579 798q0 -18 -13 -31t-32 -13t-31 13q-13 12 -13 31t13 32q12 13 31 13t32 -13t13 -32zM440 -18q-167 -1 -283.5 107.5t-116.5 255.5q0 149 116 259t283 110
q166 0 283.5 -111t117.5 -258q0 -148 -116.5 -255t-283.5 -108zM440 8q151 0 215.5 84t64.5 253q0 175 -64.5 259t-216.5 84t-216.5 -84t-64.5 -259q0 -170 65 -253.5t217 -83.5z" />
    <glyph glyph-name="multiply" unicode="&#xd7;" horiz-adv-x="460" 
d="M230 304l-162 -162l-18 18l162 162l-162 162l18 18l162 -162l162 162l18 -18l-162 -162l162 -162l-18 -18z" />
    <glyph glyph-name="Oslash" unicode="&#xd8;" horiz-adv-x="840" 
d="M550 693q119 -39 194.5 -136t75.5 -212q0 -148 -116.5 -255t-283.5 -108q-55 0 -106 12l-33 -99l-24 9l33 97q-120 38 -195 133.5t-75 210.5q0 149 116 259t283 110q51 0 106 -13l34 100l24 -9zM139 345q0 -131 37.5 -210t121.5 -109l219 651q-44 11 -97 11
q-152 0 -216.5 -84t-64.5 -259zM421 8q151 0 215.5 84t64.5 253q0 135 -37 215t-122 110l-219 -651q44 -11 98 -11z" />
    <glyph glyph-name="Ugrave" unicode="&#xd9;" horiz-adv-x="1017" 
d="M622 752l-4 -4l-161 65q-75 31 -58 60q24 40 83 -9zM35 701l3 -3l112 -73v-403q0 -19 -16 -44t-37 -25q85 -63 134.5 -94t121 -53.5t153.5 -22.5q115 0 217 46.5t164 123.5q-19 0 -29.5 23t-10.5 46l-3 403l138 73v3h-296v-2l123 -74v-444q0 -77 -83 -124t-220 -47
q-120 0 -193.5 66t-73.5 175v374l109 72l1 4h-314z" />
    <glyph glyph-name="Ucircumflex" unicode="&#xdb;" horiz-adv-x="1017" 
d="M613 718q-35 48 -104 120q-69 -72 -104 -120l-14 10q30 46 82 142q18 34 36 34t36 -34q46 -87 82 -142zM35 701l3 -3l112 -73v-403q0 -19 -16 -44t-37 -25q85 -63 134.5 -94t121 -53.5t153.5 -22.5q115 0 217 46.5t164 123.5q-19 0 -29.5 23t-10.5 46l-3 403l138 73v3
h-296v-2l123 -74v-444q0 -77 -83 -124t-220 -47q-120 0 -193.5 66t-73.5 175v374l109 72l1 4h-314z" />
    <glyph glyph-name="Udieresis" unicode="&#xdc;" horiz-adv-x="1017" 
d="M459 798q0 -19 -13 -31q-13 -13 -32 -13q-18 0 -31 13q-13 12 -13 31t13 32t31 13q19 0 32 -13t13 -32zM648 798q0 -18 -13 -31t-32 -13t-31 13q-13 12 -13 31t13 32q12 13 31 13t32 -13t13 -32zM35 701l3 -3l112 -73v-403q0 -19 -16 -44t-37 -25q85 -63 134.5 -94
t121 -53.5t153.5 -22.5q115 0 217 46.5t164 123.5q-19 0 -29.5 23t-10.5 46l-3 403l138 73v3h-296v-2l123 -74v-444q0 -77 -83 -124t-220 -47q-120 0 -193.5 66t-73.5 175v374l109 72l1 4h-314z" />
    <glyph glyph-name="Yacute" unicode="&#xdd;" horiz-adv-x="947" 
d="M526 804l-161 -65l-4 4l140 112q59 49 83 9q17 -29 -58 -60zM630 700h302v-4l-164 -71l-252 -354l12 -196l96 -71v-4l-303 -1v5l111 71v196l-258 354l-159 71v4h359v-4l-104 -71l233 -328l237 328l-110 71v4z" />
    <glyph glyph-name="germandbls" unicode="&#xdf;" horiz-adv-x="930" 
d="M870 133q0 -62 -59.5 -99t-147.5 -37q-115 0 -215 76l-60 -73h-4l-67 218h4q72 -92 162.5 -150t182.5 -58q60 0 97 33t37 79q0 9 -2 17.5t-8 15.5t-11 12.5t-16.5 12t-18.5 10.5t-23.5 10.5t-25.5 10t-29.5 10.5t-30.5 11l-99 36q-55 20 -79.5 41t-24.5 48q0 19 26 42
t97 70q48 32 68.5 58t20.5 59q0 100 -154 100q-107 0 -167 -53q-48 -44 -48 -127v-506h-215v4l114 63v404h-104v14h104q7 103 87 158q80 56 229 56q94 0 169 -26q37 -13 54 -31.5t17 -45.5q0 -28 -23 -51q-8 -7 -23 -16.5t-40.5 -24t-37.5 -21.5q-45 -27 -71 -53t-26 -42
q0 -18 18 -32q16 -12 72 -33l94 -34q99 -36 128 -57q49 -36 49 -99z" />
    <glyph glyph-name="agrave" unicode="&#xe0;" horiz-adv-x="830" 
d="M528 602l-4 -4l-161 65q-75 31 -58 60q24 40 83 -9zM785 0h-188v102q-54 -47 -134 -82t-169 -35q-107 0 -163 27t-56 89q0 60 55.5 95.5t183.5 61.5q142 29 283 60q0 95 -34.5 138.5t-114.5 43.5q-68 0 -124 -21t-87 -51t-52.5 -60.5t-28.5 -51.5l-8 -21h-4l-49 89
q14 16 35.5 32.5t64 41.5t109 41t144.5 16q229 0 229 -182l-1 -271l109 -58v-4zM597 122v181q-77 -19 -131 -31q-12 -3 -40 -9l-42 -9t-40 -9.5t-40.5 -11.5t-36.5 -13t-34.5 -15.5t-27 -18.5t-22 -22.5t-13 -26t-5.5 -30.5q0 -88 153 -84q76 2 155 29t124 70z" />
    <glyph glyph-name="aacute" unicode="&#xe1;" horiz-adv-x="830" 
d="M302 593l140 112q59 49 83 9q17 -29 -58 -60l-161 -65zM785 0h-188v102q-54 -47 -134 -82t-169 -35q-107 0 -163 27t-56 89q0 60 55.5 95.5t183.5 61.5q142 29 283 60q0 95 -34.5 138.5t-114.5 43.5q-68 0 -124 -21t-87 -51t-52.5 -60.5t-28.5 -51.5l-8 -21h-4l-49 89
q14 16 35.5 32.5t64 41.5t109 41t144.5 16q229 0 229 -182l-1 -271l109 -58v-4zM597 122v181q-77 -19 -131 -31q-12 -3 -40 -9l-42 -9t-40 -9.5t-40.5 -11.5t-36.5 -13t-34.5 -15.5t-27 -18.5t-22 -22.5t-13 -26t-5.5 -30.5q0 -88 153 -84q76 2 155 29t124 70z" />
    <glyph glyph-name="acircumflex" unicode="&#xe2;" horiz-adv-x="830" 
d="M519 568q-35 48 -104 120q-69 -72 -104 -120l-14 10q30 46 82 142q18 34 36 34t36 -34q46 -87 82 -142zM785 0h-188v102q-54 -47 -134 -82t-169 -35q-107 0 -163 27t-56 89q0 60 55.5 95.5t183.5 61.5q142 29 283 60q0 95 -34.5 138.5t-114.5 43.5q-68 0 -124 -21
t-87 -51t-52.5 -60.5t-28.5 -51.5l-8 -21h-4l-49 89q14 16 35.5 32.5t64 41.5t109 41t144.5 16q229 0 229 -182l-1 -271l109 -58v-4zM597 122v181q-77 -19 -131 -31q-12 -3 -40 -9l-42 -9t-40 -9.5t-40.5 -11.5t-36.5 -13t-34.5 -15.5t-27 -18.5t-22 -22.5t-13 -26
t-5.5 -30.5q0 -88 153 -84q76 2 155 29t124 70z" />
    <glyph glyph-name="atilde" unicode="&#xe3;" horiz-adv-x="830" 
d="M459 608q-23 0 -58 20t-58 20q-26 0 -60 -55l-14 9q55 90 102 90q24 0 59 -20t57 -20q26 0 60 55l14 -9q-55 -90 -102 -90zM785 0h-188v102q-54 -47 -134 -82t-169 -35q-107 0 -163 27t-56 89q0 60 55.5 95.5t183.5 61.5q142 29 283 60q0 95 -34.5 138.5t-114.5 43.5
q-68 0 -124 -21t-87 -51t-52.5 -60.5t-28.5 -51.5l-8 -21h-4l-49 89q14 16 35.5 32.5t64 41.5t109 41t144.5 16q229 0 229 -182l-1 -271l109 -58v-4zM597 122v181q-77 -19 -131 -31q-12 -3 -40 -9l-42 -9t-40 -9.5t-40.5 -11.5t-36.5 -13t-34.5 -15.5t-27 -18.5t-22 -22.5
t-13 -26t-5.5 -30.5q0 -88 153 -84q76 2 155 29t124 70z" />
    <glyph glyph-name="adieresis" unicode="&#xe4;" horiz-adv-x="830" 
d="M365 648q0 -19 -13 -31q-13 -13 -32 -13q-18 0 -31 13q-13 12 -13 31t13 32t31 13q19 0 32 -13t13 -32zM554 648q0 -18 -13 -31t-32 -13t-31 13q-13 12 -13 31t13 32q12 13 31 13t32 -13t13 -32zM785 0h-188v102q-54 -47 -134 -82t-169 -35q-107 0 -163 27t-56 89
q0 60 55.5 95.5t183.5 61.5q142 29 283 60q0 95 -34.5 138.5t-114.5 43.5q-68 0 -124 -21t-87 -51t-52.5 -60.5t-28.5 -51.5l-8 -21h-4l-49 89q14 16 35.5 32.5t64 41.5t109 41t144.5 16q229 0 229 -182l-1 -271l109 -58v-4zM597 122v181q-77 -19 -131 -31q-12 -3 -40 -9
l-42 -9t-40 -9.5t-40.5 -11.5t-36.5 -13t-34.5 -15.5t-27 -18.5t-22 -22.5t-13 -26t-5.5 -30.5q0 -88 153 -84q76 2 155 29t124 70z" />
    <glyph glyph-name="aring" unicode="&#xe5;" horiz-adv-x="830" 
d="M499 659q0 -35 -24 -61q-25 -25 -60 -25q-36 0 -60 25q-24 26 -24 61t24 61q24 24 60 24q35 0 60 -25q24 -25 24 -60zM475 659q0 25 -17 45q-17 18 -43 18q-27 0 -43 -18q-17 -20 -17 -45t17 -44q16 -19 43 -19t43 19q17 19 17 44zM785 0h-188v102q-54 -47 -134 -82
t-169 -35q-107 0 -163 27t-56 89q0 60 55.5 95.5t183.5 61.5q142 29 283 60q0 95 -34.5 138.5t-114.5 43.5q-68 0 -124 -21t-87 -51t-52.5 -60.5t-28.5 -51.5l-8 -21h-4l-49 89q14 16 35.5 32.5t64 41.5t109 41t144.5 16q229 0 229 -182l-1 -271l109 -58v-4zM597 122v181
q-77 -19 -131 -31q-12 -3 -40 -9l-42 -9t-40 -9.5t-40.5 -11.5t-36.5 -13t-34.5 -15.5t-27 -18.5t-22 -22.5t-13 -26t-5.5 -30.5q0 -88 153 -84q76 2 155 29t124 70z" />
    <glyph glyph-name="ae" unicode="&#xe6;" horiz-adv-x="1278" 
d="M949 23q82 -1 156 31.5t87 69.5l15 -17q-23 -47 -105.5 -86t-180.5 -39q-92 0 -172 39.5t-120 105.5l-32 -24q-54 -47 -134 -82t-169 -35q-107 0 -163 27t-56 89q0 60 55.5 95t183.5 61q142 29 283 60q0 95 -34.5 138.5t-114.5 43.5q-68 0 -124 -21t-87 -51t-52.5 -60.5
t-28.5 -51.5l-8 -21h-4l-49 89q14 16 35.5 32.5t64 41.5t109 41t144.5 16q174 0 216 -106q95 106 257 105q144 1 230.5 -72t86.5 -187l-550 10q0 -106 79.5 -173t181.5 -69zM921 500q-44 0 -82 -9.5t-73.5 -32t-56.5 -68t-21 -109.5l465 15q0 38 -12.5 72.5t-38.5 65
t-72.5 48.5t-108.5 18zM597 123v180q-77 -19 -131 -31q-12 -3 -44 -9.5t-47.5 -10t-44.5 -11t-44 -13.5t-38 -15.5t-35 -19.5t-24.5 -23t-18 -28.5t-5.5 -33.5q0 -88 153 -84q76 2 155 29t124 70z" />
    <glyph glyph-name="ccedilla" unicode="&#xe7;" horiz-adv-x="719" 
d="M679 136q-27 -54 -102 -102t-191 -53l-24 -38q4 1 16 1q33 0 56 -17q21 -16 21 -44q0 -50 -59 -88q-60 -37 -129 -45l-2 16q63 9 103 39q41 30 41 64q0 38 -45 38q-29 0 -55 -14l-11 11l68 77h-3q-135 0 -232 76.5t-91 192.5q5 109 94.5 184.5t228.5 79.5q66 2 122.5 -11
t90 -32.5t57.5 -39t33 -33.5l9 -14l-71 -89h-4q-20 90 -76.5 147.5t-160.5 57.5q-111 0 -172 -64t-61 -186q0 -95 78 -160.5t183 -67.5q110 -1 184 43t89 88z" />
    <glyph glyph-name="egrave" unicode="&#xe8;" horiz-adv-x="720" 
d="M473 602l-4 -4l-161 65q-75 31 -58 60q24 40 83 -9zM680 255l-550 10q0 -108 79.5 -175t181.5 -69q82 -1 156 31.5t87 69.5l15 -17q-23 -47 -105.5 -86t-180.5 -39q-135 0 -232 76.5t-91 193.5q5 110 95.5 187.5t227.5 76.5q144 1 230.5 -72t86.5 -187zM130 281l465 15
q0 38 -12.5 72.5t-38.5 65t-72.5 48.5t-108.5 18q-44 0 -82 -9.5t-73.5 -32t-56.5 -68t-21 -109.5z" />
    <glyph glyph-name="eacute" unicode="&#xe9;" horiz-adv-x="720" 
d="M247 593l140 112q59 49 83 9q17 -29 -58 -60l-161 -65zM680 255l-550 10q0 -108 79.5 -175t181.5 -69q82 -1 156 31.5t87 69.5l15 -17q-23 -47 -105.5 -86t-180.5 -39q-135 0 -232 76.5t-91 193.5q5 110 95.5 187.5t227.5 76.5q144 1 230.5 -72t86.5 -187zM130 281
l465 15q0 38 -12.5 72.5t-38.5 65t-72.5 48.5t-108.5 18q-44 0 -82 -9.5t-73.5 -32t-56.5 -68t-21 -109.5z" />
    <glyph glyph-name="ecircumflex" unicode="&#xea;" horiz-adv-x="720" 
d="M464 568q-35 48 -104 120q-69 -72 -104 -120l-14 10q30 46 82 142q18 34 36 34t36 -34q46 -87 82 -142zM680 255l-550 10q0 -108 79.5 -175t181.5 -69q82 -1 156 31.5t87 69.5l15 -17q-23 -47 -105.5 -86t-180.5 -39q-135 0 -232 76.5t-91 193.5q5 110 95.5 187.5
t227.5 76.5q144 1 230.5 -72t86.5 -187zM130 281l465 15q0 38 -12.5 72.5t-38.5 65t-72.5 48.5t-108.5 18q-44 0 -82 -9.5t-73.5 -32t-56.5 -68t-21 -109.5z" />
    <glyph glyph-name="edieresis" unicode="&#xeb;" horiz-adv-x="720" 
d="M310 648q0 -19 -13 -31q-13 -13 -32 -13q-18 0 -31 13q-13 12 -13 31t13 32t31 13q19 0 32 -13t13 -32zM499 648q0 -18 -13 -31t-32 -13t-31 13q-13 12 -13 31t13 32q12 13 31 13t32 -13t13 -32zM680 255l-550 10q0 -108 79.5 -175t181.5 -69q82 -1 156 31.5t87 69.5
l15 -17q-23 -47 -105.5 -86t-180.5 -39q-135 0 -232 76.5t-91 193.5q5 110 95.5 187.5t227.5 76.5q144 1 230.5 -72t86.5 -187zM130 281l465 15q0 38 -12.5 72.5t-38.5 65t-72.5 48.5t-108.5 18q-44 0 -82 -9.5t-73.5 -32t-56.5 -68t-21 -109.5z" />
    <glyph glyph-name="igrave" unicode="&#xec;" horiz-adv-x="383" 
d="M305 602l-4 -4l-161 65q-75 31 -58 60q24 40 83 -9zM40 500h190v-435l113 -61v-4h-303v4l115 61v369l-115 62v4z" />
    <glyph glyph-name="iacute" unicode="&#xed;" horiz-adv-x="383" 
d="M79 593l140 112q59 49 83 9q17 -29 -58 -60l-161 -65zM40 500h190v-435l113 -61v-4h-303v4l115 61v369l-115 62v4z" />
    <glyph glyph-name="ntilde" unicode="&#xf1;" horiz-adv-x="903" 
d="M382 648q-26 0 -60 -55l-14 9q56 90 102 90q24 0 59 -20t57 -20q26 0 60 55l14 -9q-56 -90 -102 -90q-23 0 -58 20t-58 20zM753 57l110 -53v-4h-303v4l113 53v267q0 169 -166 169q-53 0 -98 -12t-72 -28.5t-49 -38.5t-31 -35.5t-15 -26.5v-287l111 -61v-4h-303v4l112 61
v369l-112 62v4h192v-112q9 14 24.5 29.5t47.5 39t84 39t114 15.5q241 1 241 -187v-267z" />
    <glyph glyph-name="ograve" unicode="&#xf2;" horiz-adv-x="745" 
d="M486 602l-4 -4l-161 65q-75 31 -58 60q24 40 83 -9zM375 -20q-159 0 -247.5 76t-87.5 188q1 113 92 191.5t243 78.5q158 0 244 -77.5t86 -192.5q0 -113 -86 -188.5t-244 -75.5zM375 -6q112 0 176.5 71.5t64.5 178.5q0 110 -64 183t-177 73t-179.5 -73.5t-66.5 -182.5
q0 -106 66.5 -178t179.5 -72z" />
    <glyph glyph-name="oacute" unicode="&#xf3;" horiz-adv-x="745" 
d="M260 593l140 112q59 49 83 9q17 -29 -58 -60l-161 -65zM375 -20q-159 0 -247.5 76t-87.5 188q1 113 92 191.5t243 78.5q158 0 244 -77.5t86 -192.5q0 -113 -86 -188.5t-244 -75.5zM375 -6q112 0 176.5 71.5t64.5 178.5q0 110 -64 183t-177 73t-179.5 -73.5t-66.5 -182.5
q0 -106 66.5 -178t179.5 -72z" />
    <glyph glyph-name="ocircumflex" unicode="&#xf4;" horiz-adv-x="745" 
d="M477 568q-35 48 -104 120q-69 -72 -104 -120l-14 10q30 46 82 142q18 34 36 34t36 -34q46 -87 82 -142zM375 -20q-159 0 -247.5 76t-87.5 188q1 113 92 191.5t243 78.5q158 0 244 -77.5t86 -192.5q0 -113 -86 -188.5t-244 -75.5zM375 -6q112 0 176.5 71.5t64.5 178.5
q0 110 -64 183t-177 73t-179.5 -73.5t-66.5 -182.5q0 -106 66.5 -178t179.5 -72z" />
    <glyph glyph-name="otilde" unicode="&#xf5;" horiz-adv-x="745" 
d="M417 608q-23 0 -58 20t-58 20q-26 0 -60 -55l-14 9q55 90 102 90q24 0 59 -20t57 -20q26 0 60 55l14 -9q-55 -90 -102 -90zM375 -20q-159 0 -247.5 76t-87.5 188q1 113 92 191.5t243 78.5q158 0 244 -77.5t86 -192.5q0 -113 -86 -188.5t-244 -75.5zM375 -6
q112 0 176.5 71.5t64.5 178.5q0 110 -64 183t-177 73t-179.5 -73.5t-66.5 -182.5q0 -106 66.5 -178t179.5 -72z" />
    <glyph glyph-name="odieresis" unicode="&#xf6;" horiz-adv-x="745" 
d="M323 648q0 -19 -13 -31q-13 -13 -32 -13q-18 0 -31 13q-13 12 -13 31t13 32t31 13q19 0 32 -13t13 -32zM512 648q0 -18 -13 -31t-32 -13t-31 13q-13 12 -13 31t13 32q12 13 31 13t32 -13t13 -32zM375 -20q-159 0 -247.5 76t-87.5 188q1 113 92 191.5t243 78.5
q158 0 244 -77.5t86 -192.5q0 -113 -86 -188.5t-244 -75.5zM375 -6q112 0 176.5 71.5t64.5 178.5q0 110 -64 183t-177 73t-179.5 -73.5t-66.5 -182.5q0 -106 66.5 -178t179.5 -72z" />
    <glyph glyph-name="oslash" unicode="&#xf8;" horiz-adv-x="765" 
d="M478 506q115 -21 176 -90.5t61 -165.5q0 -113 -86 -188.5t-244 -75.5q-43 0 -81 6l-40 -120l-20 8l39 116q-112 23 -173 92.5t-60 161.5q-1 112 90.5 188t244.5 76q26 0 70 -4l44 130l21 -8zM139 250q0 -81 40 -144t111 -90l160 477q-28 7 -65 7q-113 0 -179.5 -71
t-66.5 -179zM385 0q112 0 176.5 71.5t64.5 178.5q0 86 -40.5 149.5t-114.5 87.5l-161 -477q33 -10 75 -10z" />
    <glyph glyph-name="ugrave" unicode="&#xf9;" horiz-adv-x="883" 
d="M552 602l-4 -4l-161 65q-75 31 -58 60q24 40 83 -9zM721 500v-434l112 -62v-4h-192v87q-89 -97 -250 -98q-241 -1 -241 187v267l-110 53v4h190v-324q0 -169 166 -169t245 108v320l-111 61v4h191z" />
    <glyph glyph-name="uacute" unicode="&#xfa;" horiz-adv-x="883" 
d="M326 593l140 112q59 49 83 9q17 -29 -58 -60l-161 -65zM721 500v-434l112 -62v-4h-192v87q-89 -97 -250 -98q-241 -1 -241 187v267l-110 53v4h190v-324q0 -169 166 -169t245 108v320l-111 61v4h191z" />
    <glyph glyph-name="ucircumflex" unicode="&#xfb;" horiz-adv-x="883" 
d="M543 568q-35 48 -104 120q-69 -72 -104 -120l-14 10q30 46 82 142q18 34 36 34t36 -34q46 -87 82 -142zM721 500v-434l112 -62v-4h-192v87q-89 -97 -250 -98q-241 -1 -241 187v267l-110 53v4h190v-324q0 -169 166 -169t245 108v320l-111 61v4h191z" />
    <glyph glyph-name="udieresis" unicode="&#xfc;" horiz-adv-x="883" 
d="M389 648q0 -19 -13 -31q-13 -13 -32 -13q-18 0 -31 13q-13 12 -13 31t13 32t31 13q19 0 32 -13t13 -32zM578 648q0 -18 -13 -31t-32 -13t-31 13q-13 12 -13 31t13 32q12 13 31 13t32 -13t13 -32zM721 500v-434l112 -62v-4h-192v87q-89 -97 -250 -98q-241 -1 -241 187v267
l-110 53v4h190v-324q0 -169 166 -169t245 108v320l-111 61v4h191z" />
    <glyph glyph-name="yacute" unicode="&#xfd;" horiz-adv-x="731" 
d="M440 654l-161 -65l-4 4l140 112q59 49 83 9q17 -29 -58 -60zM539 500h242v-4l-138 -58l-242 -361l51 -77h-104q-4 -6 -13 -19q-33 -49 -50.5 -72.5t-46 -53.5t-55.5 -42.5t-58 -12.5q-38 1 -75 17.5t-59 40.5l35 87h4q36 -46 66.5 -68.5t57.5 -25.5t56.5 18.5t58 55
t68.5 92.5l-265 421l-122 58v4h285v-4l-71 -58l225 -343l233 343l-83 58v4z" />
    <glyph glyph-name="ydieresis" unicode="&#xff;" horiz-adv-x="731" 
d="M262 617q-13 12 -13 31t13 32t31 13q19 0 32 -13t13 -32t-13 -31q-13 -13 -32 -13q-18 0 -31 13zM451 617q-13 12 -13 31t13 32q12 13 31 13t32 -13t13 -32q0 -18 -13 -31t-32 -13t-31 13zM539 500h242v-4l-138 -58l-242 -361l51 -77h-104q-4 -6 -13 -19
q-33 -49 -50.5 -72.5t-46 -53.5t-55.5 -42.5t-58 -12.5q-38 1 -75 17.5t-59 40.5l35 87h4q36 -46 66.5 -68.5t57.5 -25.5t56.5 18.5t58 55t68.5 92.5l-265 421l-122 58v4h285v-4l-71 -58l225 -343l233 343l-83 58v4z" />
    <glyph glyph-name="Eogonek" unicode="&#x118;" horiz-adv-x="857" 
d="M838 256h4l-179 -307h-13l-23 50h-424q-95 -42 -95 -97q0 -48 55 -48q39 0 75 38l11 -10q-20 -25 -50 -42q-31 -18 -64 -18q-40 0 -62 19q-23 20 -23 48q0 53 122 110h-137v5l108 71v549l-103 71v5l540 -2l43 34h4l173 -238l-4 -4l-229 183h-339v-286h344l60 125h17v-271
h-17l-60 126h-344v-338h371z" />
    <glyph glyph-name="eogonek" unicode="&#x119;" horiz-adv-x="720" 
d="M391 21q82 -1 156 31.5t87 69.5l15 -17q-23 -47 -105.5 -86t-180.5 -39q-49 0 -96 11q-79 -39 -79 -89q0 -48 55 -48q39 0 75 38l11 -10q-20 -25 -50 -42q-31 -18 -64 -18q-40 0 -62 19q-23 20 -23 48q0 53 117 108q-95 28 -153 95.5t-54 157.5q5 110 95.5 187.5
t227.5 76.5q144 1 230.5 -72t86.5 -187l-550 10q0 -108 79.5 -175t181.5 -69zM363 500q-44 0 -82 -9.5t-73.5 -32t-56.5 -68t-21 -109.5l465 15q0 38 -12.5 72.5t-38.5 65t-72.5 48.5t-108.5 18z" />
    <glyph glyph-name="dotlessi" unicode="&#x131;" horiz-adv-x="383" 
d="M40 500h190v-435l113 -61v-4h-303v4l115 61v369l-115 62v4z" />
    <glyph glyph-name="OE" unicode="&#x152;" horiz-adv-x="1322" 
d="M20 345q0 149 116 259t283 110q55 0 97 -14l529 -2l43 34h4l173 -238l-4 -4l-229 183h-339v-286h344l60 125h17v-271h-17l-60 126h-344v-338h371l239 227h4l-179 -307h-13l-23 50h-574q-44 -14 -98 -14q-167 -1 -283.5 106t-116.5 254zM138 345q0 -170 65 -252t217 -82
q87 0 134 29l8 5q28 20 46 57v494q-21 47 -65.5 69.5t-123.5 22.5q-152 0 -216.5 -84t-64.5 -259z" />
    <glyph glyph-name="oe" unicode="&#x153;" horiz-adv-x="1156" 
d="M871 27q75 -1 143 31.5t80 69.5l14 -17q-22 -48 -97.5 -86.5t-165.5 -38.5q-79 0 -146.5 33t-106.5 91q-78 -124 -265 -124q-145 0 -226.5 76t-80.5 188q-1 112 83 188t224 76q189 0 266 -124q39 56 105 89.5t147 34.5q133 1 212 -72t79 -187l-505 10q0 -104 73 -170
t167 -68zM327 0q104 0 163 71.5t59 178.5q0 109 -58.5 179.5t-163.5 70.5q-104 0 -164.5 -71t-60.5 -179q0 -107 61 -178.5t164 -71.5zM845 500q-32 0 -60 -5.5t-57 -20.5t-50 -38.5t-34 -63t-13 -91.5l427 15q0 83 -52 143.5t-161 60.5z" />
    <glyph glyph-name="Ydieresis" unicode="&#x178;" horiz-adv-x="947" 
d="M348 767q-13 12 -13 31t13 32t31 13q19 0 32 -13t13 -32t-13 -31q-13 -13 -32 -13q-18 0 -31 13zM537 767q-13 12 -13 31t13 32q12 13 31 13t32 -13t13 -32q0 -18 -13 -31t-32 -13t-31 13zM630 700h302v-4l-164 -71l-252 -354l12 -196l96 -71v-4l-303 -1v5l111 71v196
l-258 354l-159 71v4h359v-4l-104 -71l233 -328l237 328l-110 71v4z" />
    <glyph glyph-name="circumflex" unicode="&#x2c6;" horiz-adv-x="336" 
d="M272 538q-35 48 -104 120q-69 -72 -104 -120l-14 10q44 67 82 142q10 20 18 27q7 7 18 7q12 0 19 -7q5 -5 17 -27q38 -75 82 -142z" />
    <glyph glyph-name="caron" unicode="&#x2c7;" horiz-adv-x="336" 
d="M168 543q-10 0 -18 8q-9 9 -18 26q-38 75 -82 142l14 10q35 -48 104 -120q69 72 104 120l14 -10q-44 -67 -82 -142q-10 -19 -17 -26q-8 -8 -19 -8z" />
    <glyph glyph-name="breve" unicode="&#x2d8;" horiz-adv-x="368" 
d="M184 569q-49 0 -82 35q-34 34 -52 79l15 7q34 -70 119 -70t119 70l15 -7q-18 -44 -51 -79q-35 -35 -83 -35z" />
    <glyph glyph-name="dotaccent" unicode="&#x2d9;" horiz-adv-x="200" 
d="M100 600q-22 0 -36 14t-14 36t14 36t36 14t36 -14t14 -36t-14 -36t-36 -14z" />
    <glyph glyph-name="ring" unicode="&#x2da;" horiz-adv-x="268" 
d="M218 639q0 -35 -24 -61q-25 -25 -60 -25q-36 0 -60 25q-24 26 -24 61q0 36 24 61q24 24 60 24q35 0 60 -25q24 -25 24 -60zM194 639q0 25 -17 45q-17 18 -43 18t-43 -18q-17 -20 -17 -45t17 -44q16 -19 43 -19t43 19q17 19 17 44z" />
    <glyph glyph-name="ogonek" unicode="&#x2db;" horiz-adv-x="299" 
d="M205 0q-97 -42 -97 -98q0 -48 55 -48q39 0 75 38l11 -10q-20 -25 -50 -42q-31 -18 -64 -18q-40 0 -62 19q-23 20 -23 48q0 54 124 111h31z" />
    <glyph glyph-name="tilde" unicode="&#x2dc;" horiz-adv-x="392" 
d="M240 588q-23 0 -58 20t-58 20q-26 0 -60 -55l-14 9q56 90 102 90q24 0 59 -20t57 -20q26 0 60 55l14 -9q-56 -90 -102 -90z" />
    <glyph glyph-name="hungarumlaut" unicode="&#x2dd;" horiz-adv-x="499" 
d="M50 567l140 112q59 49 83 9q17 -29 -58 -60l-161 -65zM223 567l140 112q59 49 83 9q17 -29 -58 -60l-161 -65z" />
    <glyph glyph-name="gravecomb" unicode="&#x300;" horiz-adv-x="0" 
d="M-50 583l-4 -4l-161 65q-75 31 -58 60q24 40 83 -9z" />
    <glyph glyph-name="acutecomb" unicode="&#x301;" horiz-adv-x="0" 
d="M-276 593l140 112q59 49 83 9q17 -29 -58 -60l-161 -65z" />
    <glyph glyph-name="uni0302" unicode="&#x302;" horiz-adv-x="0" 
d="M-151 548q-35 48 -104 120q-69 -72 -104 -120l-14 10q30 46 82 142q18 34 36 34t36 -34q46 -87 82 -142z" />
    <glyph glyph-name="tildecomb" unicode="&#x303;" horiz-adv-x="0" 
d="M-152 588q-23 0 -58 20t-58 20q-26 0 -60 -55l-14 9q56 90 102 90q24 0 59 -20t57 -20q26 0 60 55l14 -9q-56 -90 -102 -90z" />
    <glyph glyph-name="uni0308" unicode="&#x308;" horiz-adv-x="0" 
d="M-239 628q0 -19 -13 -31q-13 -13 -32 -13q-18 0 -31 13q-13 12 -13 31t13 32t31 13q19 0 32 -13t13 -32zM-50 628q0 -18 -13 -31t-32 -13t-31 13q-13 12 -13 31t13 32q12 13 31 13t32 -13t13 -32z" />
    <glyph glyph-name="uni030A" unicode="&#x30a;" horiz-adv-x="0" 
d="M-50 639q0 -35 -24 -61q-25 -25 -60 -25q-36 0 -60 25q-24 26 -24 61q0 36 24 61q24 24 60 24q35 0 60 -25q24 -25 24 -60zM-74 639q0 25 -17 45q-16 18 -43 18q-26 0 -43 -18q-17 -20 -17 -45t17 -44q16 -19 43 -19t43 19q17 19 17 44z" />
    <glyph glyph-name="uni0327" unicode="&#x327;" horiz-adv-x="0" 
d="M-50 -117q0 -50 -59 -88q-60 -37 -129 -45l-2 16q63 9 103 39q41 30 41 64q0 38 -45 38q-29 0 -55 -14l-11 11l85 96h14l-35 -57q4 1 16 1q33 0 56 -17q21 -17 21 -44z" />
    <glyph glyph-name="endash" unicode="&#x2013;" horiz-adv-x="522" 
d="M50 293h422v-25h-422v25z" />
    <glyph glyph-name="emdash" unicode="&#x2014;" horiz-adv-x="998" 
d="M50 268v25h898v-25h-898z" />
    <glyph glyph-name="quoteleft" unicode="&#x2018;" horiz-adv-x="204" 
d="M105 504q-22 0 -38 19q-17 19 -17 50q0 43 27 76q27 32 63 40l4 -16q-31 -6 -50 -33q-21 -28 -21 -60q11 17 35 17q20 0 33 -13t13 -33q0 -19 -14 -33t-35 -14z" />
    <glyph glyph-name="quoteright" unicode="&#x2019;" horiz-adv-x="204" 
d="M60 520q30 6 51 34q20 28 20 59q-11 -17 -35 -17q-20 0 -33 13t-13 33q0 19 14 33t35 14q23 0 39 -18q16 -19 16 -51q0 -43 -27 -76q-27 -32 -63 -40z" />
    <glyph glyph-name="quotesinglbase" unicode="&#x201a;" horiz-adv-x="600" 
d="M100 -5q-22 0 -36 15q-14 14 -14 35t15 37q15 15 38 15q25 0 43 -20q17 -20 17 -56q0 -49 -28 -84q-28 -34 -70 -48l-6 17q79 31 79 105q-12 -16 -38 -16z" />
    <glyph glyph-name="quotedblleft" unicode="&#x201c;" horiz-adv-x="341" 
d="M105 504q-22 0 -38 19q-17 19 -17 50q0 43 27 76q27 32 63 40l4 -16q-31 -6 -50 -33q-21 -28 -21 -60q11 17 35 17q20 0 33 -13t13 -33q0 -19 -14 -33t-35 -14zM242 504q-22 0 -38 19q-17 19 -17 50q0 43 27 76q27 32 63 40l4 -16q-31 -6 -50 -33q-21 -28 -21 -60
q11 17 35 17q20 0 33 -13t13 -33q0 -19 -14 -33t-35 -14z" />
    <glyph glyph-name="quotedblright" unicode="&#x201d;" horiz-adv-x="341" 
d="M60 520q30 6 51 34q20 28 20 59q-11 -17 -35 -17q-20 0 -33 13t-13 33q0 19 14 33t35 14q23 0 39 -18q16 -19 16 -51q0 -43 -27 -76q-27 -32 -63 -40zM197 520q30 6 51 34q20 28 20 59q-11 -17 -35 -17q-20 0 -33 13t-13 33q0 19 14 33t35 14q22 0 39 -18q16 -19 16 -51
q0 -43 -27 -76q-27 -32 -63 -40z" />
    <glyph glyph-name="quotedblbase" unicode="&#x201e;" horiz-adv-x="600" 
d="M146 77q17 -20 17 -56q0 -49 -28 -84q-28 -34 -70 -48l-6 17q79 31 79 105q-12 -16 -38 -16q-22 0 -36 15q-14 14 -14 35t15 37q15 15 38 15q25 0 43 -20z" />
    <glyph glyph-name="bullet" unicode="&#x2022;" horiz-adv-x="270" 
d="M135 265q-36 0 -60.5 24t-24.5 61t24.5 61.5t60.5 24.5t60.5 -24.5t24.5 -61.5t-24 -61t-61 -24z" />
    <glyph glyph-name="ellipsis" unicode="&#x2026;" horiz-adv-x="632" 
d="M102 -8q-21 0 -36.5 15t-15.5 37q0 23 15.5 37.5t36.5 14.5q22 0 37 -15t15 -37t-15 -37t-37 -15zM316 -8q-21 0 -36.5 15t-15.5 37q0 23 15.5 37.5t36.5 14.5q22 0 37 -15t15 -37t-15 -37t-37 -15zM530 -8q-21 0 -36.5 15t-15.5 37q0 23 15.5 37.5t36.5 14.5
q22 0 37 -15t15 -37t-15 -37t-37 -15z" />
    <glyph glyph-name="guilsinglleft" unicode="&#x2039;" horiz-adv-x="333" 
d="M269 64q-33 33 -83 76q-17 15 -47.5 40.5t-42.5 35.5q-37 31 -46 37q9 6 46 37q12 10 42.5 35.5t47.5 40.5q50 43 83 76l14 -14q-86 -96 -141 -175q55 -79 141 -175z" />
    <glyph glyph-name="guilsinglright" unicode="&#x203a;" horiz-adv-x="333" 
d="M50 78q86 96 141 175q-55 79 -141 175l14 14q35 -35 84 -76q71 -61 89 -76q37 -31 46 -37q-9 -6 -46 -37q-18 -15 -89 -76q-49 -41 -84 -76z" />
    <glyph glyph-name="Euro" unicode="&#x20ac;" horiz-adv-x="655" 
d="M413 -10q-106 0 -174 77t-85 203h-104v15h101q-2 42 -2 55q0 9 2 55h-101v15h104q17 122 85 201.5t174 79.5q68 0 122 -35.5t70 -97.5l-31 -31q-13 69 -55.5 104.5t-105.5 35.5q-73 0 -114 -37.5t-55 -114.5q-9 -44 -11 -105h257v-15h-257v-110h257v-15h-257
q2 -62 11 -104q8 -42 27 -78q19 -37 55 -55q34 -19 87 -19q135 0 161 139l31 -31q-16 -58 -73 -95t-119 -37z" />
    <glyph glyph-name="arrowleft" unicode="&#x2190;" horiz-adv-x="1443" 
d="M25 286l285 286h192l3 -4l-212 -209h1100v-144h-1102l214 -211l-3 -4h-192z" />
    <glyph glyph-name="arrowup" unicode="&#x2191;" horiz-adv-x="820" 
d="M495 454v-454h-170v454l-271 -269l-4 3v194l360 360l360 -360v-194l-4 -3z" />
    <glyph glyph-name="arrowright" unicode="&#x2192;" horiz-adv-x="1443" 
d="M941 0l-3 4l214 211h-1102v144h1100l-212 209l3 4h192l285 -286l-285 -286h-192z" />
    <glyph glyph-name="arrowdown" unicode="&#x2193;" horiz-adv-x="820" 
d="M50 340v194l4 3l271 -269v454h170v-454l271 269l4 -3v-194l-360 -360z" />
    <glyph glyph-name="arrowboth" unicode="&#x2194;" horiz-adv-x="1558" 
d="M502 1h-192l-285 286l285 286h192l3 -4l-212 -209h972l-212 209l3 4h192l285 -286l-285 -286h-192l-3 4l214 211h-976l214 -211z" />
    <glyph glyph-name="arrowupdn" unicode="&#x2195;" horiz-adv-x="820" 
d="M50 163v153l5 2l270 -140v366l-270 -140l-5 2v153l360 183l360 -183v-153l-5 -2l-270 140v-366l270 140l5 -2v-153l-360 -183z" />
    <glyph glyph-name="uni2196" unicode="&#x2196;" horiz-adv-x="774" 
d="M201 328v-269h-151v514h523v-142h-252l428 -427l-3 -4h-217z" />
    <glyph glyph-name="uni2197" unicode="&#x2197;" horiz-adv-x="774" 
d="M573 328l-328 -328h-217l-3 4l428 427h-252v142h523v-514h-151v269z" />
    <glyph glyph-name="uni2198" unicode="&#x2198;" horiz-adv-x="759" 
d="M195 0v140h259l-429 429l3 4h217l314 -315v251h150v-509h-514z" />
    <glyph glyph-name="uni2199" unicode="&#x2199;" horiz-adv-x="759" 
d="M50 509h150v-251l314 315h217l3 -4l-429 -429h259v-140h-514v509z" />
    <glyph glyph-name="minus" unicode="&#x2212;" horiz-adv-x="500" 
d="M50 334h400v-25h-400v25z" />
    <glyph glyph-name="arrowup.case" horiz-adv-x="820" 
d="M500 487v-487h-180v487l-266 -264l-4 3v194l360 360l360 -360v-194l-4 -3z" />
    <glyph glyph-name="uni2197.case" horiz-adv-x="928" 
d="M713 458l-458 -458h-227l-3 4l562 563h-294v155h585v-576h-165v312z" />
    <glyph glyph-name="arrowright.case" horiz-adv-x="1443" 
d="M904 55l-3 4l230 226h-1081v154h1078l-227 224l3 4h209l305 -306l-305 -306h-209z" />
    <glyph glyph-name="uni2198.case" horiz-adv-x="892" 
d="M266 0v155h322l-563 563l3 4h227l422 -421v264h165v-565h-576z" />
    <glyph glyph-name="arrowdown.case" horiz-adv-x="820" 
d="M50 302v194l4 3l266 -264v487h180v-487l266 264l4 -3v-194l-360 -360z" />
    <glyph glyph-name="uni2199.case" horiz-adv-x="892" 
d="M50 565h165v-264l422 421h227l3 -4l-563 -563h322v-155h-576v565z" />
    <glyph glyph-name="arrowleft.case" horiz-adv-x="1443" 
d="M25 361l305 306h209l3 -4l-227 -224h1078v-154h-1081l230 -226l-3 -4h-209z" />
    <glyph glyph-name="uni2196.case" horiz-adv-x="928" 
d="M215 458v-312h-165v576h585v-155h-294l562 -563l-3 -4h-227z" />
    <glyph glyph-name="arrowboth.case" horiz-adv-x="1578" 
d="M539 55h-209l-305 306l305 306h209l3 -4l-227 -224h948l-227 224l3 4h209l305 -306l-305 -306h-209l-3 4l230 226h-954l230 -226z" />
    <glyph glyph-name="arrowupdn.case" horiz-adv-x="820" 
d="M50 163v161l5 2l265 -138v384l-265 -138l-5 2v161l360 183l360 -183v-161l-5 -2l-265 138v-384l265 138l5 -2v-161l-360 -183z" />
    </font>
</defs>
</svg>
